<?xml version="1.0" encoding="UTF-8" standalone="no"?>
<svg
   height="427pt"
   viewBox="-40 0 427 427.00131"
   width="427pt"
   version="1.1"
   id="svg65"
   sodipodi:docname="red_delete.svg"
   inkscape:version="1.1 (c68e22c387, 2021-05-23)"
   xmlns:inkscape="http://www.inkscape.org/namespaces/inkscape"
   xmlns:sodipodi="http://sodipodi.sourceforge.net/DTD/sodipodi-0.dtd"
   xmlns="http://www.w3.org/2000/svg"
   xmlns:svg="http://www.w3.org/2000/svg">
  <defs
     id="defs69" />
  <sodipodi:namedview
     id="namedview67"
     pagecolor="#505050"
     bordercolor="#eeeeee"
     borderopacity="1"
     inkscape:pageshadow="0"
     inkscape:pageopacity="0"
     inkscape:pagecheckerboard="0"
     inkscape:document-units="pt"
     showgrid="false"
     inkscape:zoom="0.5"
     inkscape:cx="931"
     inkscape:cy="327"
     inkscape:window-width="1920"
     inkscape:window-height="1001"
     inkscape:window-x="-9"
     inkscape:window-y="-9"
     inkscape:window-maximized="1"
     inkscape:current-layer="svg65" />
  <path
     d="m232.398438 154.703125c-5.523438 0-10 4.476563-10 10v189c0 5.519531 4.476562 10 10 10 5.523437 0 10-4.480469 10-10v-189c0-5.523437-4.476563-10-10-10zm0 0"
     id="path57" />
  <path
     d="m114.398438 154.703125c-5.523438 0-10 4.476563-10 10v189c0 5.519531 4.476562 10 10 10 5.523437 0 10-4.480469 10-10v-189c0-5.523437-4.476563-10-10-10zm0 0"
     id="path59" />
  <path
     d="m28.398438 127.121094v246.378906c0 14.5625 5.339843 28.238281 14.667968 38.050781 9.285156 9.839844 22.207032 15.425781 35.730469 15.449219h189.203125c13.527344-.023438 26.449219-5.609375 35.730469-15.449219 9.328125-9.8125 14.667969-23.488281 14.667969-38.050781v-246.378906c18.542968-4.921875 30.558593-22.835938 28.078124-41.863282-2.484374-19.023437-18.691406-33.253906-37.878906-33.257812h-51.199218v-12.5c.058593-10.511719-4.097657-20.605469-11.539063-28.03125-7.441406-7.421875-17.550781-11.5546875-28.0625-11.46875h-88.796875c-10.511719-.0859375-20.621094 4.046875-28.0625 11.46875-7.441406 7.425781-11.597656 17.519531-11.539062 28.03125v12.5h-51.199219c-19.1875.003906-35.394531 14.234375-37.878907 33.257812-2.480468 19.027344 9.535157 36.941407 28.078126 41.863282zm239.601562 279.878906h-189.203125c-17.097656 0-30.398437-14.6875-30.398437-33.5v-245.5h250v245.5c0 18.8125-13.300782 33.5-30.398438 33.5zm-158.601562-367.5c-.066407-5.207031 1.980468-10.21875 5.675781-13.894531 3.691406-3.675781 8.714843-5.695313 13.925781-5.605469h88.796875c5.210937-.089844 10.234375 1.929688 13.925781 5.605469 3.695313 3.671875 5.742188 8.6875 5.675782 13.894531v12.5h-128zm-71.199219 32.5h270.398437c9.941406 0 18 8.058594 18 18s-8.058594 18-18 18h-270.398437c-9.941407 0-18-8.058594-18-18s8.058593-18 18-18zm0 0"
     id="path61" />
  <path
     d="m173.398438 154.703125c-5.523438 0-10 4.476563-10 10v189c0 5.519531 4.476562 10 10 10 5.523437 0 10-4.480469 10-10v-189c0-5.523437-4.476563-10-10-10zm0 0"
     id="path63" />
  <path
     style="fill:#ff0000;stroke-width:0.363559"
     d="M 91.435079,294.71011 V 169.50963 l -3.361727,-1.17391 C 80.473511,165.68187 74.751943,162.15591 69.017242,156.59224 61.71008,149.503 56.79704,140.7138 54.52346,130.66352 c -0.764342,-3.37874 -1.107458,-13.72739 -0.571375,-17.23312 1.789821,-11.70459 6.55278,-21.160103 14.742204,-29.2665 6.892532,-6.822653 15.423927,-11.392586 25.576913,-13.700545 3.489854,-0.793304 3.910193,-0.802866 40.826018,-0.928417 l 37.29987,-0.126857 0.21747,-11.163598 c 0.14923,-7.660056 0.39781,-12.190481 0.79207,-14.435628 3.40957,-19.41577 17.18237,-35.2492497 35.82155,-41.1811625 8.10434,-2.57920101 3.50877,-2.41745922 72.34824,-2.54630961 41.90911,-0.07844344 63.38661,0.0096554 66.30849,0.27199166 7.74823,0.69566075 12.73235,2.05335245 19.30964,5.26000675 14.54714,7.0922307 24.82352,20.5158457 28.23773,36.8857667 0.60844,2.917237 0.75988,5.415658 0.92136,15.200048 l 0.19325,11.708987 37.49456,0.127235 c 36.85775,0.125071 37.55127,0.140508 40.83719,0.908897 10.68475,2.498563 18.40383,6.714418 25.75765,14.067783 12.81403,12.813276 17.74604,30.780462 13.26779,48.334532 -4.25004,16.65956 -16.69801,30.07828 -32.91383,35.48059 l -3.45555,1.15122 V 294.69452 419.9106 H 464.44657 451.35845 V 295.20988 170.50915 H 284.48489 117.61132 V 295.20988 419.9106 H 104.5232 91.435079 Z M 470.59501,143.40913 c 8.3884,-1.97726 15.73141,-9.33648 17.65057,-17.6895 0.71323,-3.10429 0.71828,-8.60095 0.0105,-11.39484 -1.69327,-6.68374 -6.6039,-12.84833 -12.53918,-15.741149 -1.69964,-0.828395 -4.06532,-1.753198 -5.2571,-2.055123 -1.91832,-0.48598 -23.23367,-0.548952 -185.8114,-0.548952 -181.58528,0 -183.67595,0.008 -186.447718,0.716938 -6.589652,1.68535 -12.469402,6.411596 -15.419663,12.394586 -3.485963,7.06937 -3.501817,14.56399 -0.04591,21.70387 2.125227,4.39072 6.171825,8.45342 10.581336,10.62345 1.73462,0.85365 4.025041,1.76292 5.089825,2.0206 1.56594,0.37895 37.09702,0.47338 185.8968,0.49404 162.92429,0.0226 184.22739,-0.0373 186.2919,-0.52392 z M 369.91493,59.351 c -0.007,-11.825635 -0.26387,-13.548919 -2.77285,-18.631466 -1.41616,-2.868767 -2.23241,-3.977546 -4.82517,-6.554379 -3.43816,-3.417061 -6.30771,-5.146624 -10.93717,-6.592166 l -2.7267,-0.851405 h -64.34993 -64.34994 l -2.90847,0.990484 c -4.15775,1.415928 -7.22998,3.335346 -10.35878,6.471791 -3.18966,3.197455 -4.74447,5.679221 -6.31213,10.075369 l -1.13585,3.185216 -0.12279,10.997659 -0.12278,10.997659 h 85.46444 85.46443 L 369.91492,59.351 Z"
     id="path1098"
     transform="matrix(0.75000233,0,0,0.75000233,-40.000655,0)" />
  <path
     style="fill:#ff0000;stroke-width:0.363559"
     d="m 192.95639,317.84142 0.0934,-102.06918 1.23577,-2.27891 c 1.47852,-2.72656 3.40744,-4.55502 6.17356,-5.85202 1.76906,-0.8295 2.50661,-0.95607 5.49701,-0.94334 2.76056,0.0118 3.80341,0.17463 5.19553,0.81144 2.57951,1.17997 5.43414,4.0611 6.66589,6.72775 l 1.04492,2.2622 0.0934,101.70562 0.0934,101.70562 h -13.09319 -13.09319 z"
     id="path1137"
     transform="matrix(0.75000233,0,0,0.75000233,-40.000655,0)" />
  <path
     style="fill:#ff0000;stroke-width:0.363559"
     d="m 271.48512,318.0232 0.0934,-101.8874 0.98977,-2.01347 c 1.26348,-2.57028 3.88306,-5.18987 6.45107,-6.45107 1.76014,-0.86444 2.44359,-0.98799 5.46551,-0.98799 2.98332,0 3.73593,0.13224 5.52482,0.97077 2.6419,1.23837 5.17238,3.76885 6.41075,6.41075 l 0.97077,2.07101 0.0928,101.8874 0.0928,101.8874 h -13.09256 -13.09257 z"
     id="path1176"
     transform="matrix(0.75000233,0,0,0.75000233,-40.000655,0)" />
  <path
     style="fill:#ff0000;stroke-width:0.363559"
     d="m 358.38078,483.85357 c -2.35509,-0.90519 -5.44531,-3.674 -6.71181,-6.01372 -0.5238,-0.96766 -1.13744,-2.741 -1.36364,-3.94074 -0.30237,-1.6037 -0.38305,-35.92642 -0.30467,-129.60877 l 0.10662,-127.42742 0.83755,-2.07288 c 1.17478,-2.90751 3.59342,-5.46344 6.5427,-6.91409 2.22503,-1.09441 2.70983,-1.19268 5.88414,-1.19268 3.24924,0 3.5987,0.0756 5.75432,1.24435 2.82678,1.53268 5.21372,4.12448 6.31999,6.86242 l 0.83755,2.07288 0.10661,127.42742 c 0.0784,93.68235 -0.002,128.00507 -0.30466,129.60877 -0.22621,1.19974 -0.83985,2.97308 -1.36365,3.94074 -1.30528,2.41138 -4.35617,5.11149 -6.81501,6.03146 -2.6889,1.00605 -6.88271,0.99824 -9.52604,-0.0177 z"
     id="path1215"
     transform="matrix(0.75000233,0,0,0.75000233,-40.000655,0)" />
  <path
     style="fill:#ff0000;stroke-width:0.363559"
     d="m 279.69376,483.7789 c -2.71808,-1.14582 -4.68724,-2.74578 -6.11197,-4.96603 -2.24255,-3.4947 -2.18503,-2.65082 -2.18503,-32.05669 V 419.9106 h 13.0969 13.0969 l -0.0997,27.72137 -0.0997,27.72137 -1.01253,1.92174 c -1.44581,2.74411 -3.18223,4.51571 -5.79753,5.915 -2.01451,1.07784 -2.65855,1.23322 -5.55094,1.3392 -2.80308,0.10271 -3.56791,-0.005 -5.33647,-0.75038 z"
     id="path1254"
     transform="matrix(0.75000233,0,0,0.75000233,-40.000655,0)" />
  <path
     style="fill:#ff0000;stroke-width:0.363559"
     d="m 201.51972,483.97275 c -2.39535,-0.87018 -4.75782,-2.64077 -6.25873,-4.69071 -2.49399,-3.40631 -2.39296,-2.04817 -2.39296,-32.16928 V 419.9106 h 13.08812 13.08812 v 26.68919 c 0,25.10347 -0.0406,26.81972 -0.68372,28.88601 -1.75219,5.6298 -6.58484,9.15715 -12.49919,9.12318 -1.53549,-0.009 -3.34415,-0.27387 -4.34164,-0.63623 z"
     id="path1293"
     transform="matrix(0.75000233,0,0,0.75000233,-40.000655,0)" />
  <path
     style="fill:#ff0000;stroke-width:0.363559"
     d="m 153.56654,568.95084 c -15.87418,-1.14184 -31.32643,-8.48769 -42.50365,-20.20585 -8.4256,-8.83336 -14.851707,-20.85472 -17.659955,-33.0366 -1.794569,-7.78465 -1.715474,-5.56977 -1.859805,-52.07982 L 91.407464,419.9106 h 13.086376 13.08637 l 0.12618,42.26373 c 0.12553,42.04432 0.13035,42.28203 0.92813,45.78989 2.18144,9.59169 5.71254,16.38015 11.8157,22.7154 5.29435,5.49569 11.07491,8.94699 18.35235,10.95736 l 3.52863,0.97477 h 132.15369 132.15368 l 3.63559,-0.99162 c 15.1891,-4.14288 26.19284,-16.3236 30.06072,-33.27604 0.80639,-3.53431 0.80853,-3.64028 0.92876,-45.98798 l 0.12051,-42.44551 h 13.07526 13.07529 v 42.09149 c 0,27.12923 -0.13536,43.18659 -0.38083,45.1722 -2.12297,17.17446 -9.38622,32.1078 -21.1263,43.43576 -5.25486,5.0704 -9.70675,8.2418 -16.06972,11.44763 -8.2132,4.13802 -16.04652,6.29607 -25.12979,6.92319 -5.7325,0.39577 -255.74138,0.36704 -261.26152,-0.03 z"
     id="path1332"
     transform="matrix(0.75000233,0,0,0.75000233,-40.000655,0)" />
  <path
     style="fill:#ff0000;stroke-width:0.0454449"
     d="m 199.24696,49.057737 0.0202,-1.636015 0.71472,-1.999574 c 1.15216,-3.223427 1.68991,-4.473527 2.59019,-6.021445 0.53535,-0.920467 1.65355,-2.540975 1.7126,-2.481925 0.0114,0.01143 -0.15265,0.26267 -0.36461,0.558316 -2.67318,3.728562 -4.33501,8.357269 -4.67988,13.034879 -0.007,0.09998 -0.004,-0.554427 0.007,-1.454236 z"
     id="path1371"
     transform="matrix(0.75000233,0,0,0.75000233,-40.000655,0)" />
  <path
     style="fill:#ff0000;stroke-width:0.0454449"
     d="m 152.85382,74.900667 v -5.400414 l 6.68794,-0.03025 c 3.67836,-0.01663 8.07476,-0.03024 9.76978,-0.03024 h 3.08184 l 0.02,-0.102251 c 0.011,-0.05624 0.0636,-2.535824 0.11704,-5.510191 0.23956,-13.343196 0.4266,-17.391429 0.93439,-20.222967 1.27727,-7.122382 4.01589,-13.953953 7.99761,-19.950298 0.38173,-0.574878 0.75763,-1.132145 0.83534,-1.238373 l 0.14128,-0.19314 h 47.9895 47.9895 v 2.249521 2.249521 h -29.26258 -29.26258 l -1.67401,0.571243 c -2.50903,0.856183 -3.39213,1.20763 -4.787,1.90507 -2.42003,1.210035 -4.33164,2.603268 -6.51535,4.748569 -3.11857,3.063733 -4.6928,5.425589 -6.16457,9.248883 -0.14432,0.37492 -0.54935,1.489456 -0.90005,2.476746 l -0.63765,1.795072 -0.11787,10.747712 c -0.0648,5.911241 -0.11745,10.855075 -0.11693,10.986297 l 9.6e-4,0.238586 h 39.71882 39.71881 v 5.430662 5.430662 h -62.78209 -62.78209 z"
     id="path1410"
     transform="matrix(0.75000233,0,0,0.75000233,-40.000655,0)" />
  <path
     style="fill:#ff0000;stroke-width:0.0454449"
     d="m 199.28061,48.650374 0.0206,-1.270816 0.48168,-1.342264 c 0.26493,-0.738245 0.51203,-1.430286 0.54911,-1.537868 0.0371,-0.107582 0.0765,-0.186567 0.0875,-0.175523 0.011,0.01104 -0.0619,0.293342 -0.162,0.62733 -0.4592,1.531463 -0.72138,2.822552 -0.97696,4.8109 -0.0112,0.08748 -0.0112,-0.41281 1.1e-4,-1.111759 z"
     id="path1449"
     transform="matrix(0.75000233,0,0,0.75000233,-40.000655,0)" />
  <path
     style="fill:#ff0000;stroke-width:0.0454449"
     d="m 199.22059,47.739836 c 3.4e-4,-0.124973 0.009,-0.170705 0.0196,-0.101626 0.0104,0.06908 0.0102,0.17133 -6.2e-4,0.227224 -0.0108,0.05589 -0.0193,-6.24e-4 -0.019,-0.125598 z"
     id="path1488"
     transform="matrix(0.75000233,0,0,0.75000233,-40.000655,0)" />
  <path
     style="fill:#ff0000;stroke-width:0.0454449"
     d="m 152.85382,74.900667 v -5.400418 l 6.48343,-0.03024 c 3.56589,-0.01663 7.96143,-0.03024 9.76787,-0.03024 h 3.28443 l 0.0231,-0.193141 c 0.0127,-0.106227 0.066,-2.596038 0.11841,-5.532913 0.25234,-14.133649 0.42789,-17.543075 1.07519,-20.881918 1.32276,-6.822981 4.04995,-13.474894 7.87898,-19.217723 0.36863,-0.552884 0.73404,-1.092157 0.81202,-1.198385 l 0.14177,-0.19314 h 47.9895 47.9895 v 2.249521 2.249521 h -29.26173 -29.26172 l -1.83393,0.630798 c -1.00866,0.346939 -2.0691,0.722949 -2.35654,0.835578 -3.70828,1.453029 -6.56263,3.410062 -9.5975,6.580342 -1.64647,1.719941 -2.78757,3.216127 -3.70746,4.86118 -0.86348,1.544163 -1.34594,2.685311 -2.47819,5.861583 l -0.70443,1.976102 -0.0957,8.952639 c -0.0526,4.923952 -0.10896,9.867786 -0.12516,10.986298 l -0.0294,2.033658 h 39.7259 39.72591 v 5.430662 5.430662 h -62.78209 -62.78209 z"
     id="path1527"
     transform="matrix(0.75000233,0,0,0.75000233,-40.000655,0)" />
  <path
     style="fill:#ff0000;stroke-width:0.00390625"
     d="m 199.20139,50.891602 c 1.2e-4,-0.04458 0.008,-0.739356 0.0172,-1.543946 0.0123,-1.053746 0.0183,-1.46726 0.0216,-1.478515 0.007,-0.02554 0.01,-0.162224 0.003,-0.209337 -0.004,-0.02727 -0.005,-0.06961 -0.004,-0.128554 l 0.001,-0.08789 0.2605,-0.73143 c 0.24167,-0.678554 0.26113,-0.731432 0.26929,-0.731446 0.005,-8e-6 0.009,7.51e-4 0.009,0.0017 0,9.35e-4 -0.11572,0.325691 -0.25716,0.72168 l -0.25716,0.719979 -0.009,0.726563 c -0.0165,1.369991 -0.0197,1.711457 -0.0195,2.042968 2.1e-4,0.310535 0.002,0.371355 0.009,0.271485 0.005,-0.07198 0.0295,-0.360983 0.0416,-0.488282 0.11195,-1.171582 0.30448,-2.335243 0.57842,-3.496093 0.0452,-0.191555 0.12103,-0.493898 0.12486,-0.497852 0.006,-0.0057 0.005,-0.0011 -0.0119,0.06194 -0.02,0.07618 -0.0835,0.337376 -0.11542,0.474972 -0.32532,1.401254 -0.52884,2.789614 -0.61901,4.222656 -0.004,0.06768 -0.009,0.147217 -0.0104,0.176758 l -0.003,0.05371 h -0.015 -0.015 z"
     id="path1566"
     transform="matrix(0.75000233,0,0,0.75000233,-40.000655,0)" />
  <path
     style="fill:#ff0000;stroke-width:0.00390625"
     d="m 195.89258,48.476562 v -2.496093 h 1.93209 1.9321 l -0.002,0.0079 c -0.001,0.0043 -0.11824,0.333619 -0.26022,0.731729 l -0.25816,0.723837 3.4e-4,0.09347 c 1.9e-4,0.05141 0.002,0.102255 0.003,0.112998 0.001,0.01074 0.002,-0.02972 0.001,-0.08992 l -0.001,-0.109446 0.0751,-0.210866 c 0.15738,-0.442169 0.35228,-0.988026 0.38467,-1.077325 0.0587,-0.16174 0.0681,-0.184141 0.0747,-0.177491 0.001,0.0015 -0.1292,0.369957 -0.44148,1.244593 l -0.0688,0.19283 -0.004,0.27592 c -0.003,0.248004 -0.006,0.470941 -0.0195,1.631388 -0.002,0.182617 -0.003,0.468262 -0.003,0.634766 5.5e-4,0.180187 0.001,0.227624 0.002,0.117187 0.001,-0.232122 0.006,-0.701445 0.0192,-1.798828 l 0.0103,-0.859375 0.25193,-0.705078 c 0.13857,-0.387793 0.25452,-0.712549 0.25769,-0.72168 l 0.006,-0.0166 h 0.10072 0.10073 l -0.0389,0.155273 c -0.34312,1.369484 -0.57092,2.735973 -0.68848,4.129883 -0.005,0.06338 -0.011,0.13457 -0.0126,0.158203 -0.002,0.02944 -0.004,0.03928 -0.006,0.03125 -0.002,-0.0077 -0.003,-6.86e-4 -0.003,0.02051 -2.7e-4,0.01919 0.001,0.03223 0.003,0.03223 0.002,0 0.004,-0.0034 0.004,-0.0075 0,-0.01364 0.035,-0.425829 0.0451,-0.531529 0.0846,-0.88293 0.21647,-1.768477 0.3947,-2.650391 0.0505,-0.24976 0.0497,-0.24626 0.0513,-0.241506 7.7e-4,0.0023 -0.0135,0.07782 -0.0317,0.16778 -0.24136,1.19289 -0.39529,2.376669 -0.46721,3.592901 -0.004,0.07285 -0.008,0.133055 -0.008,0.133789 0,7.33e-4 -0.006,0.0013 -0.0138,0.0013 h -0.0138 l 0.002,-0.116211 c 0.001,-0.06392 0.005,-0.363183 0.008,-0.665039 0.0146,-1.388193 0.0243,-2.121487 0.0298,-2.251953 0.002,-0.05586 0.005,-0.118262 0.005,-0.138672 9.5e-4,-0.03522 8.5e-4,-0.03482 -0.002,0.0078 -0.002,0.02471 -0.005,0.05195 -0.008,0.06055 -0.003,0.01143 -0.009,0.417599 -0.0218,1.513671 -0.009,0.823926 -0.0173,1.518702 -0.0173,1.543946 l -1.3e-4,0.0459 h -1.65235 -1.65234 z m 3.35444,-0.786001 c -7.9e-4,-0.01135 -0.001,-0.0031 -0.001,0.01842 -10e-6,0.02148 6.3e-4,0.03077 0.001,0.02064 8e-4,-0.01013 8.1e-4,-0.02771 2e-5,-0.03906 z"
     id="path1605"
     transform="matrix(0.75000233,0,0,0.75000233,-40.000655,0)" />
  <path
     style="fill:#ff0000;stroke-width:0.00390625"
     d="m 195.89258,48.476562 v -2.496093 h 1.93164 c 1.18729,0 1.93164,0.0014 1.93164,0.0036 0,0.002 -0.1169,0.331493 -0.25977,0.732214 l -0.25976,0.728584 8.4e-4,0.09493 8.5e-4,0.09493 0.002,-0.09766 0.002,-0.09766 0.19668,-0.550781 c 0.3051,-0.854406 0.32344,-0.904297 0.3324,-0.904297 0.002,0 0.004,7.69e-4 0.004,0.0017 0,0.0017 -0.25755,0.72516 -0.42532,1.194757 l -0.0862,0.241388 -0.004,0.311347 c -0.002,0.17124 -0.005,0.354412 -0.006,0.407049 -9.2e-4,0.05264 -3e-4,0.09219 0.001,0.08789 0.002,-0.0043 0.005,-0.18711 0.008,-0.40625 l 0.005,-0.398438 0.25397,-0.710937 c 0.13968,-0.391016 0.25569,-0.715772 0.25779,-0.72168 l 0.004,-0.01074 h 0.1016 c 0.0875,0 0.10129,7.92e-4 0.0994,0.0057 -0.003,0.0089 -0.0575,0.225148 -0.0901,0.360077 -0.1067,0.441993 -0.20041,0.878287 -0.28346,1.319764 -0.0487,0.258811 -0.10715,0.596816 -0.10457,0.604574 7.1e-4,0.0021 0.009,-0.04077 0.0181,-0.09529 0.0535,-0.315216 0.0957,-0.543191 0.1569,-0.847175 0.043,-0.213465 0.0532,-0.260906 0.054,-0.25 2.4e-4,0.0032 -0.0118,0.0658 -0.0268,0.13907 -0.23968,1.174576 -0.4018,2.411607 -0.47068,3.591399 -0.003,0.05479 -0.007,0.114111 -0.008,0.131836 l -0.002,0.03223 h -0.0137 -0.0137 l 0.002,-0.137695 c 0.001,-0.07573 0.006,-0.457617 0.0101,-0.848633 0.009,-0.853091 0.0144,-1.295381 0.0178,-1.499023 0.002,-0.111142 0.001,-0.151368 -0.002,-0.151368 -0.003,0 -0.004,0.0266 -0.004,0.09277 -1e-5,0.05103 -0.006,0.632422 -0.0136,1.291992 -0.007,0.65957 -0.0136,1.211084 -0.0136,1.225586 l -2e-5,0.02637 h -1.65235 -1.65234 z m 3.35936,1.921875 c 0.0516,-0.658061 0.13122,-1.332143 0.23444,-1.984447 0.0191,-0.120856 0.0211,-0.135683 0.0179,-0.132414 -0.003,0.0034 -0.0545,0.33724 -0.088,0.573893 -0.0675,0.47802 -0.13228,1.068667 -0.16682,1.520508 -0.004,0.04888 -0.008,0.08887 -0.01,0.08887 -0.004,0 -0.004,0.02787 -5e-4,0.03757 0.004,0.01021 0.004,0.0087 0.0129,-0.103976 z m -0.006,-1.089843 c 0.003,-0.32334 0.008,-0.690723 0.009,-0.816407 0.002,-0.125683 0.002,-0.229248 0.002,-0.230143 -0.004,-0.0055 -0.004,-0.01358 -0.017,1.107097 -0.002,0.17832 -0.003,0.416504 -0.003,0.529296 4.6e-4,0.112793 0.001,0.158497 0.002,0.101563 4.8e-4,-0.05693 0.004,-0.368066 0.007,-0.691406 z m -0.009,-1.264649 c 0.001,-0.0897 0.003,-0.173633 0.005,-0.186523 l 0.002,-0.02344 -0.006,0.02872 c -0.007,0.03556 -0.0134,0.344328 -0.007,0.344328 0.002,0 0.005,-0.06036 0.006,-0.163086 z m 0.009,-0.343675 c -9.9e-4,-0.0038 -0.002,-0.0016 -0.002,0.0048 -8e-5,0.0064 7.3e-4,0.0096 0.002,0.0069 0.001,-0.0026 0.001,-0.0079 1.5e-4,-0.01172 z"
     id="path1644"
     transform="matrix(0.75000233,0,0,0.75000233,-40.000655,0)" />
  <path
     style="fill:#ff0000;stroke-width:0.00390625"
     d="m 194.81055,48.035156 v -2.496094 h 2.55261 2.55262 l -0.015,0.04199 c -0.0212,0.05932 -0.10696,0.299904 -0.40454,1.135173 l -0.26004,0.7299 0.001,0.08455 0.001,0.08455 9e-4,-0.08462 8.9e-4,-0.08462 0.20669,-0.579442 c 0.31972,-0.896353 0.31755,-0.890495 0.32691,-0.881131 0.002,0.0018 -0.0866,0.251679 -0.36769,1.038977 l -0.14188,0.397443 -0.004,0.290445 c -0.004,0.263228 -0.005,0.495391 -0.002,0.46545 6.3e-4,-0.0064 0.003,-0.179148 0.006,-0.383784 l 0.004,-0.372065 0.2609,-0.729497 c 0.1435,-0.401224 0.29495,-0.824824 0.33655,-0.941334 l 0.0756,-0.211837 0.0807,-7.7e-5 0.0807,-7.8e-5 -0.003,0.0127 c -0.002,0.007 -0.0148,0.05488 -0.0288,0.106445 -0.10861,0.400358 -0.23224,0.910377 -0.32451,1.338726 -0.0209,0.09684 -0.0265,0.129754 -0.0158,0.09291 0.0108,-0.03715 0.005,-3.49e-4 -0.0153,0.09841 -0.17111,0.830296 -0.30872,1.735236 -0.39461,2.594948 -0.0221,0.2209 -0.0504,0.549251 -0.0589,0.681641 -0.001,0.01826 -0.003,0.04067 -0.004,0.0498 l -0.002,0.0166 h -0.025 -0.025 l 0.002,-0.09863 c 0.001,-0.05425 0.005,-0.346484 0.008,-0.649414 0.006,-0.564905 0.0118,-1.075913 0.0153,-1.314453 0.001,-0.07756 5.2e-4,-0.129791 -0.001,-0.123047 -0.002,0.0064 -0.005,0.216504 -0.008,0.466797 -0.004,0.395551 -0.019,1.71506 -0.0195,1.717773 -1e-4,5.38e-4 -0.98808,9.77e-4 -2.1955,9.77e-4 h -2.19531 z m 4.43636,2.400391 c -0.001,-0.01239 -0.002,-0.01102 -0.002,0.0066 -3.7e-4,0.01223 -0.002,0.02332 -0.005,0.02464 -0.005,0.0028 -0.005,0.02157 -0.001,0.03191 0.004,0.009 0.01,-0.04097 0.008,-0.06316 z m 0.004,-0.04973 c -8.7e-4,-0.007 -0.002,-0.0022 -0.002,0.01067 -4e-5,0.01289 6.9e-4,0.01864 0.002,0.01277 8.9e-4,-0.0059 9.1e-4,-0.01642 4e-5,-0.02344 z m 0.004,-0.05078 c -8.7e-4,-0.007 -0.002,-0.0022 -0.002,0.01067 -4e-5,0.01289 6.9e-4,0.01863 0.002,0.01277 9e-4,-0.0059 9.1e-4,-0.01642 4e-5,-0.02344 z m 0.004,-0.04687 c -8.7e-4,-0.007 -0.002,-0.0022 -0.002,0.01067 -4e-5,0.01289 6.9e-4,0.01863 0.002,0.01277 8.9e-4,-0.0059 9.1e-4,-0.01642 4e-5,-0.02344 z m 0.012,-0.131906 c -1.4e-4,-0.0097 -0.003,0.0053 -0.005,0.0332 -0.003,0.02793 -0.005,0.05869 -0.005,0.06836 1.4e-4,0.0097 0.003,-0.0053 0.005,-0.0332 0.003,-0.02793 0.005,-0.05869 0.005,-0.06836 z m 0.004,-0.0498 c -8.9e-4,-0.0059 -0.002,-0.0011 -0.002,0.01074 0,0.01182 7.3e-4,0.01665 0.002,0.01074 9e-4,-0.0059 9e-4,-0.01558 0,-0.02148 z m 0.004,-0.04297 c -9e-4,-0.0059 -0.002,-0.0011 -0.002,0.01074 0,0.01182 7.3e-4,0.01665 0.002,0.01074 8.9e-4,-0.0059 8.9e-4,-0.01558 0,-0.02148 z m 0.004,-0.04297 c -8.9e-4,-0.0059 -0.002,-0.0011 -0.002,0.01074 0,0.01182 7.3e-4,0.01665 0.002,0.01074 9e-4,-0.0059 9e-4,-0.01558 0,-0.02148 z m 0.004,-0.03901 c -9e-4,-0.0059 -0.002,-0.002 -0.002,0.0087 -4e-5,0.01074 7.1e-4,0.0156 0.002,0.0108 9.3e-4,-0.0048 9.5e-4,-0.01359 6e-5,-0.01953 z m -0.04,-0.680718 c 0.003,-0.297558 0.007,-0.651758 0.008,-0.787109 l 0.002,-0.246094 -0.003,0.191406 c -0.005,0.32005 -0.0116,0.896236 -0.0131,1.228516 -7.6e-4,0.172949 -8.1e-4,0.278418 -1.1e-4,0.234375 7e-4,-0.04404 0.004,-0.323535 0.007,-0.621094 z m 0.0439,0.637749 c -9e-4,-0.0059 -0.002,-0.002 -0.002,0.0087 -4e-5,0.01074 7e-4,0.0156 0.002,0.0108 9.3e-4,-0.0048 9.5e-4,-0.01359 5e-5,-0.01953 z m 0.004,-0.03906 c -9e-4,-0.0059 -0.002,-0.002 -0.002,0.0087 -4e-5,0.01074 7.1e-4,0.0156 0.002,0.0108 9.2e-4,-0.0048 9.5e-4,-0.01359 5e-5,-0.01953 z m 0.004,-0.03906 c -9e-4,-0.0059 -0.002,-0.002 -0.002,0.0087 -4e-5,0.01074 7e-4,0.0156 0.002,0.0108 9.3e-4,-0.0048 9.5e-4,-0.01359 6e-5,-0.01953 z m 0.004,-0.03906 c -9e-4,-0.0059 -0.002,-0.002 -0.002,0.0087 -4e-5,0.01074 7e-4,0.0156 0.002,0.0108 9.3e-4,-0.0048 9.5e-4,-0.01359 5e-5,-0.01953 z m 0.004,-0.03906 c -9e-4,-0.0059 -0.002,-0.002 -0.002,0.0087 -4e-5,0.01074 7.1e-4,0.0156 0.002,0.0108 9.3e-4,-0.0048 9.6e-4,-0.01359 6e-5,-0.01953 z m 0.004,-0.03716 c -9.3e-4,-0.0048 -0.002,-8.79e-4 -0.002,0.0088 0,0.0097 7.7e-4,0.01362 0.002,0.0088 9.3e-4,-0.0048 9.3e-4,-0.01274 0,-0.01758 z m 0.004,-0.03706 c -9e-4,-0.0059 -0.002,-0.002 -0.002,0.0087 -4e-5,0.01074 7.1e-4,0.0156 0.002,0.0108 9.2e-4,-0.0048 9.5e-4,-0.01359 5e-5,-0.01953 z m 0.004,-0.03716 c -9.3e-4,-0.0048 -0.002,-8.78e-4 -0.002,0.0088 0,0.0097 7.6e-4,0.01362 0.002,0.0088 9.3e-4,-0.0048 9.3e-4,-0.01274 0,-0.01758 z m 0.008,-0.06543 c -1.1e-4,-0.01096 -7.4e-4,-0.0098 -0.003,0.0059 -0.002,0.01074 -0.003,0.02656 -0.003,0.03516 1.8e-4,0.0136 5.9e-4,0.01285 0.003,-0.0059 0.002,-0.01182 0.003,-0.02764 0.003,-0.03516 z m 0.004,-0.04004 c -9.3e-4,-0.0048 -0.002,-8.79e-4 -0.002,0.0088 0,0.0097 7.6e-4,0.01362 0.002,0.0088 9.3e-4,-0.0048 9.3e-4,-0.01274 0,-0.01758 z m 0.004,-0.03516 c -9.3e-4,-0.0048 -0.002,-8.78e-4 -0.002,0.0088 0,0.0097 7.6e-4,0.01362 0.002,0.0088 9.4e-4,-0.0048 9.4e-4,-0.01274 0,-0.01758 z m 0.004,-0.03516 c -9.3e-4,-0.0048 -0.002,-8.79e-4 -0.002,0.0088 0,0.0097 7.6e-4,0.01362 0.002,0.0088 9.3e-4,-0.0048 9.3e-4,-0.01274 0,-0.01758 z m 0.008,-0.06152 c -1.5e-4,-0.01106 -7.6e-4,-0.0099 -0.003,0.0059 -0.002,0.01074 -0.003,0.02568 -0.003,0.0332 1.5e-4,0.01106 7.7e-4,0.0099 0.003,-0.0059 0.002,-0.01074 0.003,-0.02568 0.003,-0.0332 z m 0.008,-0.06641 c -1.4e-4,-0.01106 -7.6e-4,-0.0099 -0.003,0.0059 -0.002,0.01074 -0.003,0.02568 -0.003,0.0332 1.4e-4,0.01106 7.6e-4,0.0099 0.003,-0.0059 0.002,-0.01074 0.003,-0.02568 0.003,-0.0332 z m 0.004,-0.03609 c -9.4e-4,-0.0049 -0.002,-0.0018 -0.002,0.0068 -4e-5,0.0086 7.2e-4,0.01257 0.002,0.0088 9.8e-4,-0.0037 0.001,-0.01077 8e-5,-0.01563 z m 0.004,-0.03125 c -9.3e-4,-0.0049 -0.002,-0.0018 -0.002,0.0068 -5e-5,0.0086 7.2e-4,0.01257 0.002,0.0088 9.7e-4,-0.0037 0.001,-0.01077 7e-5,-0.01563 z m 0.0197,-0.157272 c -0.001,-0.0089 -0.0189,0.128576 -0.0181,0.140625 2.7e-4,0.0043 0.005,-0.02383 0.01,-0.0625 0.005,-0.03867 0.009,-0.07383 0.008,-0.07813 z m 0.004,-0.03023 c -9.3e-4,-0.0049 -0.002,-0.0018 -0.002,0.0068 -4e-5,0.0086 7.3e-4,0.01257 0.002,0.0088 9.8e-4,-0.0037 0.001,-0.01077 8e-5,-0.01563 z m 0.008,-0.05571 c -1.5e-4,-0.0086 -0.001,-0.0071 -0.003,0.0059 -0.002,0.0097 -0.003,0.02285 -0.003,0.0293 1.5e-4,0.0086 0.001,0.0071 0.003,-0.0059 0.002,-0.0097 0.003,-0.02285 0.003,-0.0293 z m 0.008,-0.05859 c -1.5e-4,-0.0086 -0.001,-0.0071 -0.003,0.0059 -0.002,0.0097 -0.003,0.02285 -0.003,0.0293 1.5e-4,0.0086 0.001,0.0071 0.003,-0.0059 0.002,-0.0097 0.003,-0.02285 0.003,-0.0293 z m 0.0117,-0.08594 c -9e-5,-0.0064 -0.002,0.0023 -0.005,0.01953 -0.003,0.01719 -0.005,0.03652 -0.005,0.04297 9e-5,0.0064 0.002,-0.0023 0.005,-0.01953 0.003,-0.01719 0.005,-0.03652 0.005,-0.04297 z m 0.003,-0.03223 c -9.8e-4,-0.0038 -0.002,-6.84e-4 -0.002,0.0068 0,0.0075 8e-4,0.0106 0.002,0.0068 9.8e-4,-0.0038 9.8e-4,-0.0099 0,-0.01367 z m 0.0236,-0.163086 c -0.001,-0.0089 -0.0226,0.136542 -0.0219,0.148437 2.4e-4,0.0043 0.005,-0.02559 0.0117,-0.06641 0.006,-0.04082 0.0108,-0.07773 0.0103,-0.08203 z m 0.004,-0.02832 c -9.9e-4,-0.0038 -0.002,-6.84e-4 -0.002,0.0068 0,0.0075 8e-4,0.0106 0.002,0.0068 9.8e-4,-0.0038 9.8e-4,-0.0099 0,-0.01367 z m 0.004,-0.02734 c -9.8e-4,-0.0038 -0.002,-6.84e-4 -0.002,0.0068 0,0.0075 8e-4,0.0106 0.002,0.0068 9.8e-4,-0.0038 9.8e-4,-0.0099 0,-0.01367 z m 0.008,-0.04785 c -1.4e-4,-0.0063 -10e-4,-0.0042 -0.003,0.0059 -0.002,0.0086 -0.003,0.02002 -0.003,0.02539 1.4e-4,0.0063 0.001,0.0042 0.003,-0.0059 0.002,-0.0086 0.003,-0.02002 0.003,-0.02539 z m 0.0117,-0.07813 c -1.4e-4,-0.0054 -0.003,0.0034 -0.005,0.01953 -0.003,0.01611 -0.005,0.03369 -0.005,0.03906 1.3e-4,0.0054 0.003,-0.0034 0.005,-0.01953 0.003,-0.01611 0.005,-0.03369 0.005,-0.03906 z m 0.008,-0.05078 c -1.5e-4,-0.0063 -10e-4,-0.0042 -0.003,0.0059 -0.002,0.0086 -0.003,0.02002 -0.003,0.02539 1.5e-4,0.0063 0.001,0.0042 0.003,-0.0059 0.002,-0.0086 0.003,-0.02002 0.003,-0.02539 z m 0.0117,-0.07422 c -1.1e-4,-0.0054 -0.003,0.0025 -0.005,0.01758 -0.003,0.01504 -0.005,0.03174 -0.005,0.03711 1.1e-4,0.0054 0.003,-0.0025 0.005,-0.01758 0.003,-0.01504 0.005,-0.03174 0.005,-0.03711 z m 0.0117,-0.07422 c -1.1e-4,-0.0054 -0.003,0.0025 -0.005,0.01758 -0.003,0.01504 -0.005,0.03174 -0.005,0.03711 1.1e-4,0.0054 0.003,-0.0025 0.005,-0.01758 0.003,-0.01504 0.005,-0.03174 0.005,-0.03711 z m 0.003,-0.02629 c -9.9e-4,-0.0038 -0.002,-0.0016 -0.002,0.0048 -8e-5,0.0064 7.3e-4,0.0096 0.002,0.0069 10e-4,-0.0026 10e-4,-0.0079 1.4e-4,-0.01172 z m 0.004,-0.02344 c -9.9e-4,-0.0038 -0.002,-0.0016 -0.002,0.0048 -7e-5,0.0064 7.4e-4,0.0096 0.002,0.0069 0.001,-0.0026 0.001,-0.0079 1.4e-4,-0.01172 z m 0.004,-0.02937 c -0.001,-0.0027 -0.002,-4.88e-4 -0.002,0.0049 0,0.0054 8.8e-4,0.0076 0.002,0.0049 0.001,-0.0027 0.001,-0.0071 0,-0.0098 z m 0.004,-0.02141 c -9.9e-4,-0.0038 -0.002,-0.0016 -0.002,0.0048 -8e-5,0.0064 7.3e-4,0.0096 0.002,0.0069 0.001,-0.0026 0.001,-0.0079 1.4e-4,-0.01172 z m 0.004,-0.02344 c -9.9e-4,-0.0038 -0.002,-0.0016 -0.002,0.0048 -7e-5,0.0064 7.3e-4,0.0096 0.002,0.0069 0.001,-0.0026 0.001,-0.0079 1.5e-4,-0.01172 z m -0.26176,-0.0057 c -0.001,-0.0031 -0.002,-0.0022 -0.002,0.0024 -1.7e-4,0.0041 7.6e-4,0.0064 0.002,0.0051 0.001,-0.0013 0.001,-0.0047 3.1e-4,-0.0075 z m -0.0179,-0.160368 c 0.002,-0.08649 0.004,-0.167806 0.005,-0.180697 l 0.002,-0.02344 -0.005,0.02529 c -0.006,0.02825 -0.013,0.343984 -0.008,0.339005 0.002,-0.0016 0.004,-0.07366 0.006,-0.160156 z m 0.30232,0.04628 c 0.01,-0.05778 0.0173,-0.106848 0.0165,-0.109039 -10e-4,-0.0038 -0.0325,0.173693 -0.0363,0.206281 -0.004,0.03686 0.003,7.13e-4 0.0197,-0.09724 z m 0.0352,-0.201007 c 0.008,-0.04372 0.0135,-0.0813 0.0127,-0.08351 -0.001,-0.0044 -0.0305,0.155419 -0.03,0.164984 5.6e-4,0.01058 0.003,-0.0011 0.0173,-0.08148 z m 0.0408,-0.222257 c 0.0213,-0.113264 0.0262,-0.143863 0.0215,-0.131838 -0.003,0.0069 -0.0486,0.253632 -0.0483,0.259732 5.6e-4,0.01081 0.003,-0.0011 0.0268,-0.127894 z m 0.0888,-0.461916 c -0.001,-0.0066 -0.0654,0.311256 -0.0648,0.320313 2.1e-4,0.0032 0.0151,-0.06621 0.0331,-0.154297 0.018,-0.08809 0.0322,-0.162793 0.0317,-0.166016 z m 0.0129,-0.0521 c 0.005,-0.02328 0.008,-0.0431 0.007,-0.04403 -0.002,-0.0015 -0.0185,0.0774 -0.0185,0.08604 0,0.01031 0.004,-0.0041 0.0116,-0.042 z"
     id="path1683"
     transform="matrix(0.75000233,0,0,0.75000233,-40.000655,0)" />
  <path
     style="fill:#ff0000;stroke-width:0.00390625"
     d="m 194.81055,48.035156 v -2.496094 h 2.5526 2.55261 l -0.019,0.05371 c -0.0105,0.02954 -0.0737,0.207341 -0.14057,0.395111 -0.0668,0.187769 -0.12092,0.34201 -0.12017,0.342756 7.5e-4,7.47e-4 0.0221,-0.0562 0.0475,-0.126555 0.0681,-0.18897 0.0833,-0.225731 0.0904,-0.218644 0.002,0.0017 -0.0832,0.242301 -0.28341,0.80315 -0.0432,0.121127 -0.078,0.220857 -0.0772,0.221623 7.6e-4,7.66e-4 0.0855,-0.23369 0.18826,-0.521013 0.10278,-0.287322 0.22131,-0.618644 0.2634,-0.736271 l 0.0765,-0.213868 h 0.0815 c 0.0671,0 0.0811,9.38e-4 0.0794,0.0053 -0.002,0.0056 -0.0522,0.191165 -0.0823,0.305233 -0.0546,0.206686 -0.12322,0.490765 -0.1214,0.502683 10e-4,0.0083 8.6e-4,0.01042 -0.001,0.0059 -0.004,-0.0095 -0.0249,0.07686 -0.0223,0.09298 0.002,0.0095 0.001,0.01024 -0.002,0.0039 -0.002,-0.0043 -0.004,-0.006 -0.004,-0.0039 -1.6e-4,0.0022 -0.0116,0.05256 -0.0255,0.111965 -0.0165,0.07071 -0.0246,0.113182 -0.0235,0.122996 0.001,0.01135 9.5e-4,0.01261 -0.001,0.0052 -0.003,-0.0097 -0.003,-0.0097 -0.006,0.0025 -0.001,0.0068 -0.002,0.01906 -8e-4,0.02734 0.001,0.01111 9.3e-4,0.01251 -0.001,0.0053 -0.003,-0.01103 7.5e-4,-0.02814 -0.048,0.195276 -0.0338,0.155053 -0.0369,0.170598 -0.0311,0.158203 0.008,-0.01641 0.003,0.0083 -0.031,0.179811 -0.19065,0.950743 -0.32185,1.854044 -0.40596,2.794798 -0.0113,0.126448 -0.0291,0.345808 -0.0336,0.414063 -0.001,0.01826 -0.003,0.03979 -0.004,0.04785 l -0.002,0.01465 h -0.0249 -0.0249 l -0.001,-0.03418 -0.001,-0.03418 -8.1e-4,0.03418 -8e-4,0.03418 h -2.19531 -2.19531 z m 4.43653,2.408203 c -2.7e-4,-0.01499 -3.4e-4,-0.01507 -0.002,-0.002 -7.4e-4,0.0075 -0.003,0.02013 -0.006,0.02803 -0.002,0.0081 -0.003,0.01748 -0.001,0.02148 0.002,0.0053 0.004,0.0022 0.006,-0.0124 0.002,-0.01074 0.003,-0.02656 0.003,-0.03516 z m -0.0391,-0.245117 c -6.2e-4,-0.04565 -0.001,-0.0083 -0.001,0.08301 0,0.09131 5.1e-4,0.128662 0.001,0.08301 6.3e-4,-0.04565 6.3e-4,-0.120362 0,-0.166016 z m 0.0428,0.191452 c -9.3e-4,-0.0049 -0.002,-0.0018 -0.002,0.0068 -4e-5,0.0086 7.2e-4,0.01257 0.002,0.0088 9.8e-4,-0.0037 0.001,-0.01077 8e-5,-0.01563 z m 0.004,-0.04887 c -9.9e-4,-0.0038 -0.002,-6.83e-4 -0.002,0.0068 0,0.0075 8e-4,0.0106 0.002,0.0068 9.8e-4,-0.0038 9.8e-4,-0.0099 0,-0.01367 z m 0.004,-0.04878 c -9.3e-4,-0.0049 -0.002,-0.0018 -0.002,0.0068 -4e-5,0.0086 7.3e-4,0.01257 0.002,0.0088 9.8e-4,-0.0037 0.001,-0.01077 8e-5,-0.01563 z m 0.004,-0.05278 c -9.8e-4,-0.0038 -0.002,-6.84e-4 -0.002,0.0068 0,0.0075 8.1e-4,0.0106 0.002,0.0068 9.8e-4,-0.0038 9.8e-4,-0.0099 0,-0.01367 z m 0.004,-0.03901 c -9e-4,-0.0059 -0.002,-0.002 -0.002,0.0087 -4e-5,0.01074 7e-4,0.0156 0.002,0.0108 9.3e-4,-0.0048 9.5e-4,-0.01359 6e-5,-0.01953 z m 0.004,-0.03912 c -9.8e-4,-0.0038 -0.002,-6.84e-4 -0.002,0.0068 0,0.0075 8.1e-4,0.0106 0.002,0.0068 9.8e-4,-0.0038 9.8e-4,-0.0099 0,-0.01367 z m 0.004,-0.05078 c -9.9e-4,-0.0038 -0.002,-6.84e-4 -0.002,0.0068 0,0.0075 8e-4,0.0106 0.002,0.0068 9.8e-4,-0.0038 9.8e-4,-0.0099 0,-0.01367 z m -0.0623,-0.253907 c -6.2e-4,-0.04673 -0.001,-0.0085 -0.001,0.08496 0,0.09346 5.1e-4,0.13169 0.001,0.08496 6.2e-4,-0.04673 6.2e-4,-0.123193 0,-0.169922 z m 0.0662,0.210938 c -9.8e-4,-0.0038 -0.002,-6.84e-4 -0.002,0.0068 0,0.0075 8e-4,0.0106 0.002,0.0068 9.9e-4,-0.0038 9.9e-4,-0.0099 0,-0.01367 z m 0.004,-0.04297 c -9.8e-4,-0.0038 -0.002,-6.84e-4 -0.002,0.0068 0,0.0075 8.1e-4,0.0106 0.002,0.0068 9.8e-4,-0.0038 9.8e-4,-0.0099 0,-0.01367 z m 0.004,-0.03899 c -9.9e-4,-0.0038 -0.002,-0.0016 -0.002,0.0048 -7e-5,0.0064 7.4e-4,0.0096 0.002,0.0069 0.001,-0.0026 0.001,-0.0079 1.4e-4,-0.01172 z m 0.004,-0.04297 c -9.9e-4,-0.0038 -0.002,-0.0016 -0.002,0.0048 -8e-5,0.0064 7.3e-4,0.0096 0.002,0.0069 0.001,-0.0026 0.001,-0.0079 1.5e-4,-0.01172 z m 0.004,-0.03906 c -9.9e-4,-0.0038 -0.002,-0.0016 -0.002,0.0048 -8e-5,0.0064 7.3e-4,0.0096 0.002,0.0069 0.001,-0.0026 0.001,-0.0079 1.4e-4,-0.01172 z m 0.004,-0.03906 c -9.9e-4,-0.0038 -0.002,-0.0016 -0.002,0.0048 -7e-5,0.0064 7.3e-4,0.0096 0.002,0.0069 0.001,-0.0026 0.001,-0.0079 1.5e-4,-0.01172 z m 0.004,-0.03906 c -0.001,-0.0038 -0.002,-0.0016 -0.002,0.0048 -8e-5,0.0064 7.3e-4,0.0096 0.002,0.0069 0.001,-0.0026 0.001,-0.0079 1.4e-4,-0.01172 z m 0.004,-0.03906 c -9.9e-4,-0.0038 -0.002,-0.0016 -0.002,0.0048 -8e-5,0.0064 7.3e-4,0.0096 0.002,0.0069 0.001,-0.0026 0.001,-0.0079 1.4e-4,-0.01172 z m 0.004,-0.03718 c -0.001,-0.0027 -0.002,-4.88e-4 -0.002,0.0049 0,0.0054 8.8e-4,0.0076 0.002,0.0049 0.001,-0.0027 0.001,-0.0071 0,-0.0098 z m -0.0934,-0.24414 c -6.3e-4,-0.04673 -10e-4,-0.0085 -10e-4,0.08496 0,0.09346 5.1e-4,0.131689 10e-4,0.08496 6.2e-4,-0.04673 6.2e-4,-0.123194 0,-0.169922 z m 0.0973,0.208984 c -0.001,-0.0027 -0.002,-4.88e-4 -0.002,0.0049 0,0.0054 8.9e-4,0.0076 0.002,0.0049 0.001,-0.0027 0.001,-0.0071 0,-0.0098 z m 0.004,-0.03906 c -0.001,-0.0027 -0.002,-4.89e-4 -0.002,0.0049 0,0.0054 8.9e-4,0.0076 0.002,0.0049 0.001,-0.0027 0.001,-0.0071 0,-0.0098 z m 0.004,-0.03516 c -10e-4,-0.0027 -0.002,-4.88e-4 -0.002,0.0049 0,0.0054 8.8e-4,0.0076 0.002,0.0049 0.001,-0.0027 0.001,-0.0071 0,-0.0098 z m -0.0778,-0.24414 c -6.3e-4,-0.04243 -0.001,-0.0077 -0.001,0.07715 0,0.08486 5.2e-4,0.11958 0.001,0.07715 6.3e-4,-0.04243 6.3e-4,-0.111866 0,-0.154297 z m 0.0818,0.210937 c -9.8e-4,-0.0038 -0.002,-6.83e-4 -0.002,0.0068 0,0.0075 8.1e-4,0.0106 0.002,0.0068 9.8e-4,-0.0038 9.8e-4,-0.0099 0,-0.01367 z m 0.004,-0.03296 c -0.001,-0.0031 -0.002,-0.0022 -0.002,0.0024 -1.7e-4,0.0041 7.5e-4,0.0064 0.002,0.0051 0.001,-0.0013 0.001,-0.0047 3.1e-4,-0.0075 z m 0.0157,-0.134935 c -9.9e-4,-0.0038 -0.002,-0.0016 -0.002,0.0048 -8e-5,0.0064 7.3e-4,0.0096 0.002,0.0069 0.001,-0.0026 0.001,-0.0079 1.4e-4,-0.01172 z M 199.2215,49.15333 c -6.2e-4,-0.04673 -0.001,-0.0085 -0.001,0.08496 0,0.09346 5.1e-4,0.13169 0.001,0.08496 6.3e-4,-0.04673 6.3e-4,-0.123193 0,-0.169922 z m 0.13248,0.216797 c -0.001,-0.0027 -0.002,-4.88e-4 -0.002,0.0049 0,0.0054 8.8e-4,0.0076 0.002,0.0049 0.001,-0.0027 0.001,-0.0071 0,-0.0098 z m -0.10513,-0.331771 c -6.3e-4,-0.04365 -0.001,-0.009 -0.001,0.07689 0,0.08594 5.1e-4,0.121651 0.001,0.07936 6.3e-4,-0.04229 6.4e-4,-0.112601 1e-5,-0.15625 z m 0.12083,0.207015 c -10e-4,-0.0031 -0.002,-0.0022 -0.002,0.0024 -1.7e-4,0.0041 7.6e-4,0.0064 0.002,0.0051 0.001,-0.0013 0.001,-0.0047 3.1e-4,-0.0075 z m 0.004,-0.0354 c -0.001,-0.0027 -0.002,-4.88e-4 -0.002,0.0049 0,0.0054 8.8e-4,0.0076 0.002,0.0049 0.001,-0.0027 0.001,-0.0071 0,-0.0098 z m 0.004,-0.0271 c -0.001,-0.0031 -0.002,-0.0022 -0.002,0.0024 -1.7e-4,0.0041 7.5e-4,0.0064 0.002,0.0051 0.001,-0.0013 0.001,-0.0047 3.1e-4,-0.0075 z m 0.0156,-0.121093 c -0.001,-0.0031 -0.002,-0.0022 -0.002,0.0024 -1.7e-4,0.0041 7.5e-4,0.0064 0.002,0.0051 0.001,-0.0013 0.001,-0.0047 3.1e-4,-0.0075 z m -0.1619,-0.573487 c 0.001,-0.07842 5.4e-4,-0.122363 -0.001,-0.09766 -0.002,0.02471 -0.004,0.187305 -0.005,0.361328 -0.002,0.268105 -0.002,0.283013 0.001,0.09766 0.002,-0.120312 0.004,-0.28291 0.005,-0.361328 z m 0.17753,0.456299 c -0.001,-0.0031 -0.002,-0.0022 -0.002,0.0024 -1.7e-4,0.0041 7.5e-4,0.0064 0.002,0.0051 0.001,-0.0013 0.001,-0.0047 3.1e-4,-0.0075 z m -0.156,-0.234619 c -6.4e-4,-0.03706 -0.001,-0.0067 -0.001,0.06738 0,0.07412 5.3e-4,0.104443 0.001,0.06738 6.4e-4,-0.03706 6.4e-4,-0.09771 0,-0.134766 z m 0.17162,0.121338 c -0.001,-0.0031 -0.002,-0.0022 -0.002,0.0024 -1.7e-4,0.0041 7.5e-4,0.0064 0.002,0.0051 0.001,-0.0013 0.001,-0.0047 3.1e-4,-0.0075 z m 0.004,-0.02759 c -0.001,-0.0027 -0.002,-4.88e-4 -0.002,0.0049 0,0.0054 8.9e-4,0.0076 0.002,0.0049 0.001,-0.0027 0.001,-0.0071 0,-0.0098 z m 0.004,-0.02734 c -0.001,-0.0027 -0.002,-4.88e-4 -0.002,0.0049 0,0.0054 8.9e-4,0.0076 0.002,0.0049 10e-4,-0.0027 10e-4,-0.0071 0,-0.0098 z m 0.004,-0.02734 c -0.001,-0.0027 -0.002,-4.88e-4 -0.002,0.0049 0,0.0054 8.8e-4,0.0076 0.002,0.0049 0.001,-0.0027 0.001,-0.0071 0,-0.0098 z m 0.004,-0.02319 c -0.001,-0.0031 -0.002,-0.0022 -0.002,0.0024 -1.7e-4,0.0041 7.5e-4,0.0064 0.002,0.0051 0.001,-0.0013 0.001,-0.0047 3.1e-4,-0.0075 z m 0.0234,-0.160156 c -0.001,-0.0031 -0.002,-0.0022 -0.002,0.0024 -1.7e-4,0.0041 7.6e-4,0.0064 0.002,0.0051 0.001,-0.0013 0.001,-0.0047 3.1e-4,-0.0075 z m -0.20678,-0.152588 c -6.6e-4,-0.02847 -0.001,-0.0052 -0.001,0.05176 0,0.05693 5.5e-4,0.08022 0.001,0.05176 6.7e-4,-0.02847 6.7e-4,-0.07505 0,-0.103516 z m 0.21069,0.12915 c -0.001,-0.0031 -0.002,-0.0022 -0.002,0.0024 -1.7e-4,0.0041 7.5e-4,0.0064 0.002,0.0051 0.001,-0.0013 0.001,-0.0047 3.1e-4,-0.0075 z m 0.0273,-0.175781 c -0.001,-0.0031 -0.002,-0.0022 -0.002,0.0024 -1.7e-4,0.0041 7.6e-4,0.0064 0.002,0.0051 0.001,-0.0013 0.001,-0.0047 3.1e-4,-0.0075 z m -0.25576,-0.344971 c 10e-4,-0.08378 6.2e-4,-0.121544 -0.001,-0.08984 -0.004,0.08005 -0.007,0.268239 -0.004,0.25 0.002,-0.0086 0.004,-0.08066 0.005,-0.160157 z m 0.026,-0.280924 c 2.9e-4,-0.07502 -1.3e-4,-0.135661 -9.4e-4,-0.134766 -8e-4,8.95e-4 -0.002,0.125554 -0.003,0.277018 -0.001,0.175684 -8.5e-4,0.224477 9.3e-4,0.134766 0.002,-0.07734 0.003,-0.202002 0.003,-0.277018 z m 0.26484,0.406901 c -0.001,-0.0027 -0.002,-4.88e-4 -0.002,0.0049 0,0.0054 8.8e-4,0.0076 0.002,0.0049 10e-4,-0.0027 10e-4,-0.0071 0,-0.0098 z m 0.004,-0.02344 c -0.001,-0.0027 -0.002,-4.88e-4 -0.002,0.0049 0,0.0054 8.9e-4,0.0076 0.002,0.0049 0.001,-0.0027 0.001,-0.0071 0,-0.0098 z m 0.004,-0.02344 c -0.001,-0.0027 -0.002,-4.88e-4 -0.002,0.0049 0,0.0054 8.9e-4,0.0076 0.002,0.0049 0.001,-0.0027 0.001,-0.0071 0,-0.0098 z m 0.004,-0.02344 c -10e-4,-0.0027 -0.002,-4.88e-4 -0.002,0.0049 0,0.0054 8.8e-4,0.0076 0.002,0.0049 0.001,-0.0027 0.001,-0.0071 0,-0.0098 z m 0.004,-0.01929 c -0.001,-0.0031 -0.002,-0.0022 -0.002,0.0024 -1.6e-4,0.0041 7.6e-4,0.0064 0.002,0.0051 0.001,-0.0013 0.001,-0.0047 3e-4,-0.0075 z m 0.004,-0.02344 c -0.001,-0.0031 -0.002,-0.0022 -0.002,0.0024 -1.7e-4,0.0041 7.5e-4,0.0064 0.002,0.0051 0.001,-0.0013 0.001,-0.0047 3.1e-4,-0.0075 z m 0.0156,-0.08984 c -0.001,-0.0031 -0.002,-0.0022 -0.002,0.0024 -1.7e-4,0.0041 7.5e-4,0.0064 0.002,0.0051 0.001,-0.0013 0.001,-0.0047 3.1e-4,-0.0075 z m 0.004,-0.01953 c -0.001,-0.0031 -0.002,-0.0022 -0.002,0.0024 -1.7e-4,0.0041 7.6e-4,0.0064 0.002,0.0051 0.001,-0.0013 0.001,-0.0047 3.1e-4,-0.0075 z m 0.004,-0.02344 c -0.001,-0.0031 -0.002,-0.0022 -0.002,0.0024 -1.7e-4,0.0041 7.5e-4,0.0064 0.002,0.0051 10e-4,-0.0013 10e-4,-0.0047 3.1e-4,-0.0075 z m 0.004,-0.02368 c -0.001,-0.0027 -0.002,-4.89e-4 -0.002,0.0049 0,0.0054 8.9e-4,0.0076 0.002,0.0049 0.001,-0.0027 0.001,-0.0071 0,-0.0098 z m 0.004,-0.01929 c -0.001,-0.0031 -0.002,-0.0022 -0.002,0.0024 -1.7e-4,0.0041 7.5e-4,0.0064 0.002,0.0051 0.001,-0.0013 0.001,-0.0047 3.1e-4,-0.0075 z m 0.0156,-0.08594 c -0.001,-0.0031 -0.002,-0.0022 -0.002,0.0024 -1.7e-4,0.0041 7.5e-4,0.0064 0.002,0.0051 0.001,-0.0013 0.001,-0.0047 3.1e-4,-0.0075 z m 0.008,-0.04297 c -0.001,-0.0031 -0.002,-0.0022 -0.002,0.0024 -1.7e-4,0.0041 7.5e-4,0.0064 0.002,0.0051 0.001,-0.0013 0.001,-0.0047 3.1e-4,-0.0075 z m 0.004,-0.01953 c -0.001,-0.0031 -0.002,-0.0022 -0.002,0.0024 -1.6e-4,0.0041 7.6e-4,0.0064 0.002,0.0051 0.001,-0.0013 0.001,-0.0047 3e-4,-0.0075 z m 0.004,-0.02344 c -0.001,-0.0031 -0.002,-0.0022 -0.002,0.0024 -1.7e-4,0.0041 7.5e-4,0.0064 0.002,0.0051 0.001,-0.0013 0.001,-0.0047 3.1e-4,-0.0075 z m 0.004,-0.01953 c -0.001,-0.0031 -0.002,-0.0022 -0.002,0.0024 -1.7e-4,0.0041 7.5e-4,0.0064 0.002,0.0051 10e-4,-0.0013 10e-4,-0.0047 3.1e-4,-0.0075 z m 0.004,-0.02368 c -0.001,-0.0027 -0.002,-4.89e-4 -0.002,0.0049 0,0.0054 8.9e-4,0.0076 0.002,0.0049 0.001,-0.0027 0.001,-0.0071 0,-0.0098 z m 0.004,-0.01929 c -0.001,-0.0031 -0.002,-0.0022 -0.002,0.0024 -1.7e-4,0.0041 7.5e-4,0.0064 0.002,0.0051 0.001,-0.0013 0.001,-0.0047 3.1e-4,-0.0075 z m 0.004,-0.01953 c -0.001,-0.0031 -0.002,-0.0022 -0.002,0.0024 -1.7e-4,0.0041 7.5e-4,0.0064 0.002,0.0051 10e-4,-0.0013 10e-4,-0.0047 3.1e-4,-0.0075 z m -0.35314,-0.200439 c 0.002,-0.0043 3.5e-4,-0.0025 -0.003,0.0039 -0.005,0.0094 -0.006,0.02969 -0.005,0.103516 l 6.4e-4,0.0918 0.002,-0.0957 c 0.001,-0.05264 0.003,-0.09922 0.005,-0.103515 z m 0.35704,0.180908 c -0.001,-0.0031 -0.002,-0.0022 -0.002,0.0024 -1.7e-4,0.0041 7.6e-4,0.0064 0.002,0.0051 0.001,-0.0013 0.001,-0.0047 3.1e-4,-0.0075 z m 0.004,-0.01953 c -10e-4,-0.0031 -0.002,-0.0022 -0.002,0.0024 -1.7e-4,0.0041 7.5e-4,0.0064 0.002,0.0051 0.001,-0.0013 0.001,-0.0047 3.1e-4,-0.0075 z m -0.38427,-0.147338 c 0.004,-0.0095 0.006,-0.01791 0.005,-0.01877 -8.6e-4,-8.6e-4 -0.005,0.0094 -0.01,0.02285 -0.007,0.02121 -0.008,0.03239 -0.007,0.08518 l 7.5e-4,0.06077 0.002,-0.06641 c 0.002,-0.04881 0.004,-0.07097 0.009,-0.08362 z m 0.39599,0.08484 c -0.001,-0.0031 -0.002,-0.0022 -0.002,0.0024 -1.7e-4,0.0041 7.5e-4,0.0064 0.002,0.0051 10e-4,-0.0013 10e-4,-0.0047 3.1e-4,-0.0075 z m 0.004,-0.01953 c -0.001,-0.0031 -0.002,-0.0022 -0.002,0.0024 -1.7e-4,0.0041 7.6e-4,0.0064 0.002,0.0051 0.001,-0.0013 0.001,-0.0047 3.1e-4,-0.0075 z m 0.004,-0.01953 c -0.001,-0.0031 -0.002,-0.0022 -0.002,0.0024 -1.7e-4,0.0041 7.5e-4,0.0064 0.002,0.0051 0.001,-0.0013 0.001,-0.0047 3.1e-4,-0.0075 z m 0.004,-0.01953 c -0.001,-0.0031 -0.002,-0.0022 -0.002,0.0024 -1.7e-4,0.0041 7.5e-4,0.0064 0.002,0.0051 10e-4,-0.0013 10e-4,-0.0047 3.1e-4,-0.0075 z m 0.004,-0.01953 c -0.001,-0.0031 -0.002,-0.0022 -0.002,0.0024 -1.7e-4,0.0041 7.6e-4,0.0064 0.002,0.0051 0.001,-0.0013 0.001,-0.0047 3.1e-4,-0.0075 z m 0.004,-0.01953 c -0.001,-0.0031 -0.002,-0.0022 -0.002,0.0024 -1.7e-4,0.0041 7.5e-4,0.0064 0.002,0.0051 0.001,-0.0013 0.001,-0.0047 3.1e-4,-0.0075 z m -0.39759,-0.0351 c 0.004,-0.01326 0.007,-0.0248 0.007,-0.02564 -8.4e-4,-8.41e-4 -0.005,0.0078 -0.008,0.01923 -0.004,0.01142 -0.008,0.02296 -0.009,0.02564 -0.001,0.0027 -9e-4,0.0049 2.1e-4,0.0049 0.001,0 0.006,-0.01085 0.0102,-0.02412 z m 0.0195,0 c 0.004,-0.01326 0.007,-0.0248 0.007,-0.02564 -8.4e-4,-8.41e-4 -0.005,0.0078 -0.008,0.01923 -0.004,0.01142 -0.008,0.02296 -0.009,0.02564 -9.9e-4,0.0027 -9e-4,0.0049 2.1e-4,0.0049 0.001,0 0.006,-0.01085 0.0102,-0.02412 z m 0.38196,0.01557 c -0.001,-0.0031 -0.002,-0.0022 -0.002,0.0024 -1.6e-4,0.0041 7.6e-4,0.0064 0.002,0.0051 0.001,-0.0013 0.001,-0.0047 3e-4,-0.0075 z m 0.004,-0.01953 c -0.001,-0.0031 -0.002,-0.0022 -0.002,0.0024 -1.7e-4,0.0041 7.5e-4,0.0064 0.002,0.0051 0.001,-0.0013 0.001,-0.0047 3.1e-4,-0.0075 z m -0.36633,-0.05073 c 0.004,-0.01326 0.007,-0.0248 0.007,-0.02564 -8.4e-4,-8.4e-4 -0.005,0.0078 -0.008,0.01923 -0.004,0.01142 -0.008,0.02296 -0.009,0.02564 -9.9e-4,0.0027 -9e-4,0.0049 2.1e-4,0.0049 0.001,0 0.006,-0.01085 0.0102,-0.02412 z m -0.0138,-0.01885 c 0.002,-0.0078 10e-4,-0.0075 -0.003,0.002 -0.003,0.0064 -0.006,0.01611 -0.008,0.02148 -0.002,0.0078 -10e-4,0.0075 0.003,-0.002 0.003,-0.0064 0.006,-0.01611 0.008,-0.02148 z m 0.39577,-0.0085 c -0.001,-0.0031 -0.002,-0.0022 -0.002,0.0024 -1.7e-4,0.0041 7.5e-4,0.0064 0.002,0.0051 10e-4,-0.0013 10e-4,-0.0047 3.1e-4,-0.0075 z m -0.36243,-0.02729 c 0.004,-0.01326 0.007,-0.0248 0.007,-0.02564 -8.4e-4,-8.41e-4 -0.005,0.0078 -0.008,0.01923 -0.004,0.01142 -0.008,0.02296 -0.009,0.02564 -9.9e-4,0.0027 -9e-4,0.0049 2.1e-4,0.0049 10e-4,0 0.006,-0.01085 0.0102,-0.02412 z m 0.36633,0.0078 c -0.001,-0.0031 -0.002,-0.0022 -0.002,0.0024 -1.7e-4,0.0041 7.6e-4,0.0064 0.002,0.0051 0.001,-0.0013 0.001,-0.0047 3.1e-4,-0.0075 z m -0.38014,-0.02661 c 0.002,-0.0078 0.001,-0.0075 -0.003,0.002 -0.003,0.0064 -0.006,0.01611 -0.008,0.02148 -0.002,0.0078 -0.001,0.0075 0.003,-0.002 0.003,-0.0064 0.006,-0.01611 0.008,-0.02148 z m 0.0333,-0.03583 c 0.004,-0.01326 0.007,-0.0248 0.007,-0.02564 -8.4e-4,-8.4e-4 -0.005,0.0078 -0.008,0.01923 -0.004,0.01142 -0.008,0.02296 -0.009,0.02564 -9.9e-4,0.0027 -9e-4,0.0049 2.1e-4,0.0049 0.001,0 0.006,-0.01085 0.0102,-0.02412 z m -0.0138,-0.01885 c 0.002,-0.0078 0.001,-0.0075 -0.003,0.002 -0.003,0.0064 -0.006,0.01611 -0.008,0.02148 -0.002,0.0078 -0.001,0.0075 0.003,-0.002 0.003,-0.0064 0.006,-0.01611 0.008,-0.02148 z m 0.0333,-0.03583 c 0.004,-0.01326 0.007,-0.0248 0.007,-0.02564 -8.4e-4,-8.41e-4 -0.005,0.0078 -0.008,0.01923 -0.004,0.01142 -0.008,0.02296 -0.009,0.02564 -9.9e-4,0.0027 -8.9e-4,0.0049 2.1e-4,0.0049 0.001,0 0.006,-0.01085 0.0102,-0.02412 z m -0.0138,-0.01885 c 0.002,-0.0078 0.001,-0.0075 -0.003,0.002 -0.003,0.0064 -0.006,0.01611 -0.008,0.02148 -0.002,0.0078 -0.001,0.0075 0.003,-0.002 0.003,-0.0064 0.006,-0.01611 0.008,-0.02148 z m 0.36843,0.0032 c -0.001,-0.0031 -0.002,-0.0022 -0.002,0.0024 -1.7e-4,0.0041 7.5e-4,0.0064 0.002,0.0051 0.001,-0.0013 0.001,-0.0047 3.1e-4,-0.0075 z m -0.33509,-0.03901 c 0.004,-0.01326 0.007,-0.0248 0.007,-0.02564 -8.4e-4,-8.4e-4 -0.005,0.0078 -0.008,0.01923 -0.004,0.01142 -0.008,0.02296 -0.009,0.02564 -9.9e-4,0.0027 -8.9e-4,0.0049 2.1e-4,0.0049 0.001,0 0.006,-0.01085 0.0102,-0.02412 z m -0.0138,-0.01885 c 0.002,-0.0078 0.001,-0.0075 -0.003,0.002 -0.003,0.0064 -0.006,0.01611 -0.008,0.02148 -0.002,0.0078 -0.001,0.0075 0.003,-0.002 0.003,-0.0064 0.006,-0.01611 0.008,-0.02148 z m 0.0333,-0.03583 c 0.004,-0.01326 0.007,-0.0248 0.007,-0.02564 -8.4e-4,-8.41e-4 -0.005,0.0078 -0.008,0.01923 -0.004,0.01142 -0.008,0.02296 -0.009,0.02564 -9.9e-4,0.0027 -8.9e-4,0.0049 2.2e-4,0.0049 0.001,0 0.006,-0.01085 0.0102,-0.02412 z m -0.0156,-0.01172 c 0.004,-0.01326 0.007,-0.0248 0.007,-0.02564 -8.4e-4,-8.4e-4 -0.005,0.0078 -0.008,0.01923 -0.004,0.01142 -0.008,0.02296 -0.009,0.02564 -9.9e-4,0.0027 -9e-4,0.0049 2.1e-4,0.0049 0.001,0 0.006,-0.01085 0.0102,-0.02412 z m 0.0195,-0.05469 c 0.004,-0.01326 0.007,-0.0248 0.007,-0.02564 -8.4e-4,-8.41e-4 -0.005,0.0078 -0.008,0.01923 -0.004,0.01142 -0.008,0.02296 -0.009,0.02564 -9.9e-4,0.0027 -9e-4,0.0049 2.1e-4,0.0049 10e-4,0 0.006,-0.01085 0.0102,-0.02412 z m 0.0195,-0.05469 c 0.004,-0.01326 0.007,-0.0248 0.007,-0.02564 -8.4e-4,-8.4e-4 -0.005,0.0078 -0.008,0.01923 -0.004,0.01142 -0.008,0.02296 -0.009,0.02564 -9.9e-4,0.0027 -8.9e-4,0.0049 2.1e-4,0.0049 0.001,0 0.006,-0.01085 0.0102,-0.02412 z m 0.0252,-0.07354 c 0.002,-0.0078 0.001,-0.0075 -0.003,0.002 -0.003,0.0064 -0.006,0.01611 -0.008,0.02148 -0.002,0.0078 -0.001,0.0075 0.003,-0.002 0.003,-0.0064 0.006,-0.01611 0.008,-0.02148 z m 0.0195,-0.05469 c 0.002,-0.0078 0.001,-0.0075 -0.003,0.002 -0.003,0.0064 -0.006,0.01611 -0.008,0.02148 -0.002,0.0078 -0.001,0.0075 0.003,-0.002 0.003,-0.0064 0.006,-0.01611 0.008,-0.02148 z m 0.0195,-0.05469 c 0.002,-0.0078 0.001,-0.0075 -0.003,0.002 -0.003,0.0064 -0.006,0.01611 -0.008,0.02148 -0.002,0.0078 -0.001,0.0075 0.003,-0.002 0.003,-0.0064 0.006,-0.01611 0.008,-0.02148 z m 0.0195,-0.05469 c 0.002,-0.0078 0.001,-0.0075 -0.003,0.002 -0.003,0.0064 -0.006,0.01611 -0.008,0.02148 -0.002,0.0078 -0.001,0.0075 0.003,-0.002 0.003,-0.0064 0.006,-0.01611 0.008,-0.02148 z m 0.0195,-0.05469 c 0.002,-0.0078 0.001,-0.0075 -0.003,0.002 -0.003,0.0064 -0.006,0.01611 -0.008,0.02148 -0.002,0.0078 -0.001,0.0075 0.003,-0.002 0.003,-0.0064 0.006,-0.01611 0.008,-0.02148 z m 0.0177,-0.04755 c 0.004,-0.01326 0.007,-0.0248 0.007,-0.02564 -8.4e-4,-8.4e-4 -0.005,0.0078 -0.008,0.01923 -0.004,0.01142 -0.008,0.02296 -0.009,0.02564 -0.001,0.0027 -9e-4,0.0049 2.1e-4,0.0049 10e-4,0 0.006,-0.01085 0.0102,-0.02412 z m 0.0195,-0.05469 c 0.004,-0.01326 0.007,-0.0248 0.007,-0.02564 -8.4e-4,-8.41e-4 -0.005,0.0078 -0.008,0.01923 -0.004,0.01142 -0.008,0.02296 -0.009,0.02564 -9.9e-4,0.0027 -9e-4,0.0049 2.1e-4,0.0049 0.001,0 0.006,-0.01085 0.0102,-0.02412 z m 0.0195,-0.05469 c 0.004,-0.01326 0.007,-0.0248 0.007,-0.02564 -8.4e-4,-8.4e-4 -0.005,0.0078 -0.008,0.01923 -0.004,0.01142 -0.008,0.02296 -0.009,0.02564 -9.9e-4,0.0027 -9e-4,0.0049 2.1e-4,0.0049 0.001,0 0.006,-0.01085 0.0102,-0.02412 z m 0.0195,-0.05469 c 0.004,-0.01326 0.007,-0.0248 0.007,-0.02564 -8.4e-4,-8.41e-4 -0.005,0.0078 -0.008,0.01923 -0.004,0.01142 -0.008,0.02296 -0.009,0.02564 -9.9e-4,0.0027 -9e-4,0.0049 2.1e-4,0.0049 0.001,0 0.006,-0.01085 0.0102,-0.02412 z m 0.0195,-0.05469 c 0.004,-0.01326 0.007,-0.0248 0.007,-0.02564 -8.4e-4,-8.4e-4 -0.005,0.0078 -0.008,0.01923 -0.004,0.01142 -0.008,0.02296 -0.009,0.02564 -9.9e-4,0.0027 -9e-4,0.0049 2.1e-4,0.0049 0.001,0 0.006,-0.01085 0.0102,-0.02412 z"
     id="path1722"
     transform="matrix(0.75000233,0,0,0.75000233,-40.000655,0)" />
  <path
     style="fill:#ff0000;stroke-width:0.00390625"
     d="m 194.81055,48.035156 v -2.496094 h 2.55315 c 2.43001,0 2.55302,3.3e-4 2.55043,0.0068 -0.0132,0.03312 -0.22464,0.631223 -0.22355,0.632313 7.9e-4,7.86e-4 0.0134,-0.03152 0.028,-0.07179 0.0311,-0.08546 0.0468,-0.122047 0.0526,-0.122047 0.002,0 0.004,8.59e-4 0.004,0.0019 0,0.0019 -0.095,0.270598 -0.16571,0.468409 -0.0206,0.0578 -0.0369,0.105728 -0.0361,0.106517 7.9e-4,7.88e-4 0.0484,-0.129995 0.10588,-0.290631 0.0574,-0.160635 0.13981,-0.39094 0.18304,-0.51179 l 0.0786,-0.219727 h 0.0815 c 0.0758,0 0.0813,4.77e-4 0.0794,0.0068 -0.005,0.01557 -0.0517,0.190161 -0.0785,0.291993 -0.0599,0.227697 -0.0997,0.39268 -0.0974,0.403428 0.002,0.0085 10e-4,0.0095 -0.002,0.0048 -0.004,-0.0046 -0.004,-0.0029 -0.002,0.0078 0.002,0.01062 0.001,0.01236 -0.002,0.0078 -0.003,-0.0046 -0.004,-0.0028 -0.002,0.0078 0.002,0.01062 0.001,0.01236 -0.002,0.0078 -0.003,-0.0046 -0.004,-0.0028 -0.002,0.0078 0.002,0.01062 0.001,0.01236 -0.002,0.0078 -0.003,-0.0046 -0.004,-0.0028 -0.002,0.0078 0.002,0.01062 0.001,0.01236 -0.002,0.0078 -0.003,-0.0045 -0.004,-0.0029 -0.002,0.0073 0.002,0.0094 0.001,0.0124 -0.002,0.01041 -0.003,-0.0019 -0.004,2.45e-4 -0.002,0.0073 0.001,0.0057 8.7e-4,0.01009 -0.001,0.01009 -0.002,0 -0.003,0.0047 -0.002,0.01035 0.001,0.0069 5.5e-4,0.0095 -0.002,0.0077 -0.006,-0.0035 -0.0139,0.02539 -0.0138,0.04763 7e-5,0.01122 -0.001,0.01513 -0.003,0.01172 -0.002,-0.0033 -0.003,-0.001 -0.001,0.0066 0.001,0.0064 5.9e-4,0.01699 -0.001,0.02344 -0.003,0.0087 -0.004,0.0097 -0.004,0.0039 -3.8e-4,-0.0043 -0.004,0.0045 -0.008,0.01953 -0.004,0.01504 -0.007,0.0335 -0.005,0.04102 0.001,0.009 8.2e-4,0.01119 -10e-4,0.0064 -0.004,-0.01004 -0.0131,0.02779 -0.0104,0.04529 10e-4,0.0086 9e-4,0.01042 -0.001,0.0055 -0.004,-0.01002 -0.0131,0.02772 -0.0105,0.04529 0.001,0.0094 0.001,0.0107 -0.001,0.005 -0.003,-0.0067 -0.004,-0.0058 -0.006,0.0063 -0.001,0.0077 -0.002,0.01652 -5.4e-4,0.01952 0.001,0.003 -0.002,0.02389 -0.007,0.04642 -0.005,0.02253 -0.01,0.03745 -0.0101,0.03315 -5.1e-4,-0.007 -9.7e-4,-0.0068 -0.004,0.0015 -0.002,0.0051 -0.003,0.01568 -0.002,0.02344 0.001,0.0096 0.001,0.01167 -0.001,0.0065 -0.003,-0.0067 -0.004,-0.0062 -0.006,0.0045 -10e-4,0.0067 -0.002,0.01888 -7e-4,0.02716 0.001,0.01135 9.5e-4,0.01265 -0.001,0.0053 -0.003,-0.0097 -0.003,-0.0097 -0.006,0.0025 -10e-4,0.0068 -0.002,0.01906 -7.9e-4,0.02734 0.001,0.01135 9.5e-4,0.01265 -0.001,0.0053 -0.003,-0.0097 -0.003,-0.0097 -0.006,0.0025 -10e-4,0.0068 -0.002,0.01906 -8e-4,0.02734 0.001,0.01145 9.7e-4,0.01272 -10e-4,0.0053 -0.003,-0.0094 -0.003,-0.0092 -0.006,0.0044 -0.002,0.0078 -0.002,0.01686 -4.1e-4,0.0202 0.001,0.0033 -0.003,0.02942 -0.009,0.05795 -0.008,0.03602 -0.0116,0.04894 -0.0133,0.04229 -0.002,-0.0088 -0.003,-0.0084 -0.005,0.0044 -0.001,0.0077 -0.002,0.01909 -6e-4,0.02539 0.001,0.0063 4.5e-4,0.01673 -0.002,0.02317 -0.004,0.01123 -0.004,0.01131 -0.004,0.002 -6.4e-4,-0.0094 -8.2e-4,-0.0093 -0.004,0.002 -0.002,0.0064 -0.003,0.01704 -0.002,0.02354 0.001,0.0069 -0.009,0.06477 -0.0234,0.138671 -0.21883,1.088642 -0.36916,2.168364 -0.44323,3.18349 -0.004,0.06123 -0.009,0.117041 -0.0101,0.124024 l -0.002,0.0127 h -0.025 -0.025 l -0.002,-0.0166 -0.001,-0.0166 -6.9e-4,0.0166 -6.8e-4,0.0166 h -2.19531 -2.19531 z m 4.43334,2.442383 c -2.2e-4,-0.01349 -5.4e-4,-0.0139 -0.004,-0.0051 -0.002,0.0052 -0.003,0.01182 -0.002,0.01465 0.004,0.0094 0.006,0.0053 0.006,-0.0095 z m 0.003,-0.03516 c -9.8e-4,-0.0038 -0.002,-6.84e-4 -0.002,0.0068 0,0.0075 8e-4,0.0106 0.002,0.0068 9.9e-4,-0.0038 9.9e-4,-0.0099 0,-0.01367 z m 0.004,-0.04858 c -0.001,-0.0031 -0.002,-0.0022 -0.002,0.0024 -1.7e-4,0.0041 7.5e-4,0.0064 0.002,0.0051 0.001,-0.0013 0.001,-0.0047 3.1e-4,-0.0075 z m -0.0427,-0.150843 c -7e-4,-0.02083 -0.001,-0.0027 -0.001,0.04025 0,0.04297 5.8e-4,0.06001 0.001,0.03788 7e-4,-0.02214 7e-4,-0.05729 0,-0.07813 z m 0.0465,0.09982 c -0.001,-0.0027 -0.002,-4.88e-4 -0.002,0.0049 0,0.0054 8.9e-4,0.0076 0.002,0.0049 10e-4,-0.0027 10e-4,-0.0071 0,-0.0098 z m 0.004,-0.04687 c -0.001,-0.0027 -0.002,-4.88e-4 -0.002,0.0049 0,0.0054 8.8e-4,0.0076 0.002,0.0049 0.001,-0.0027 0.001,-0.0071 0,-0.0098 z m 0.004,-0.05054 c -0.001,-0.0031 -0.002,-0.0022 -0.002,0.0024 -1.6e-4,0.0041 7.6e-4,0.0064 0.002,0.0051 0.001,-0.0013 0.001,-0.0047 3e-4,-0.0075 z m 0.004,-0.04119 c -9.9e-4,-0.0038 -0.002,-0.0016 -0.002,0.0048 -7e-5,0.0064 7.3e-4,0.0096 0.002,0.0069 10e-4,-0.0026 10e-4,-0.0079 1.5e-4,-0.01172 z m 0.004,-0.04085 c -0.001,-0.0031 -0.002,-0.0022 -0.002,0.0024 -1.7e-4,0.0041 7.5e-4,0.0064 0.002,0.0051 0.001,-0.0013 0.001,-0.0047 3.1e-4,-0.0075 z m 0.004,-0.05103 c -0.001,-0.0027 -0.002,-4.89e-4 -0.002,0.0049 0,0.0054 8.9e-4,0.0076 0.002,0.0049 0.001,-0.0027 0.001,-0.0071 0,-0.0098 z m 0.004,-0.04297 c -0.001,-0.0027 -0.002,-4.88e-4 -0.002,0.0049 0,0.0054 8.8e-4,0.0076 0.002,0.0049 10e-4,-0.0027 10e-4,-0.0071 0,-0.0098 z m 0.004,-0.04297 c -0.001,-0.0027 -0.002,-4.88e-4 -0.002,0.0049 0,0.0054 8.9e-4,0.0076 0.002,0.0049 0.001,-0.0027 0.001,-0.0071 0,-0.0098 z m -0.07,-0.122834 c -6.9e-4,-0.02321 -0.001,-0.0053 -0.001,0.03983 -1e-5,0.04512 5.6e-4,0.06411 0.001,0.0422 6.9e-4,-0.0219 6.9e-4,-0.05882 0,-0.08203 z m 0.074,0.08402 c -0.001,-0.0031 -0.002,-0.0022 -0.002,0.0024 -1.7e-4,0.0041 7.6e-4,0.0064 0.002,0.0051 0.001,-0.0013 0.001,-0.0047 3.1e-4,-0.0075 z m 0.004,-0.04297 c -0.001,-0.0031 -0.002,-0.0022 -0.002,0.0024 -1.7e-4,0.0041 7.5e-4,0.0064 0.002,0.0051 10e-4,-0.0013 10e-4,-0.0047 3.1e-4,-0.0075 z m 0.004,-0.03906 c -0.001,-0.0031 -0.002,-0.0022 -0.002,0.0024 -1.6e-4,0.0041 7.6e-4,0.0064 0.002,0.0051 0.001,-0.0013 0.001,-0.0047 3e-4,-0.0075 z m 0.004,-0.03906 c -0.001,-0.0031 -0.002,-0.0022 -0.002,0.0024 -1.7e-4,0.0041 7.5e-4,0.0064 0.002,0.0051 0.001,-0.0013 0.001,-0.0047 3.1e-4,-0.0075 z m -0.0701,-1.312744 c -6.5e-4,-0.03276 -0.001,-0.006 -0.001,0.05957 0,0.06553 5.4e-4,0.09233 0.001,0.05957 6.5e-4,-0.03276 6.5e-4,-0.08638 0,-0.11914 z m 0.004,-0.150391 c -8.9e-4,-0.0059 -0.002,-0.0011 -0.002,0.01074 0,0.01182 7.3e-4,0.01665 0.002,0.01074 9e-4,-0.0059 9e-4,-0.01558 0,-0.02148 z m 0.004,-0.359162 c -6.9e-4,-0.02321 -0.001,-0.0053 -0.001,0.03983 -1e-5,0.04512 5.6e-4,0.06411 0.001,0.0422 7e-4,-0.0219 7e-4,-0.05882 0,-0.08203 z m 0.004,-0.109588 c -9.8e-4,-0.0038 -0.002,-6.83e-4 -0.002,0.0068 0,0.0075 8.1e-4,0.0106 0.002,0.0068 9.8e-4,-0.0038 9.8e-4,-0.0099 0,-0.01367 z m 0.0237,-0.197265 c -6.7e-4,-0.02847 -10e-4,-0.0052 -10e-4,0.05176 0,0.05693 5.5e-4,0.08022 10e-4,0.05176 6.6e-4,-0.02847 6.6e-4,-0.07505 0,-0.103515 z m 0.48013,-0.714844 c -0.001,-0.0027 -0.002,-4.88e-4 -0.002,0.0049 0,0.0054 8.9e-4,0.0076 0.002,0.0049 0.001,-0.0027 0.001,-0.0071 0,-0.0098 z m 0.0162,-0.06738 c 0,-0.0062 -6.5e-4,-0.0058 -0.003,0.002 -0.002,0.0054 -0.003,0.01328 -0.003,0.01758 0,0.0062 6.5e-4,0.0058 0.003,-0.002 0.002,-0.0054 0.003,-0.01328 0.003,-0.01758 z m 0.003,-0.02246 c -0.001,-0.0027 -0.002,-4.88e-4 -0.002,0.0049 0,0.0054 8.9e-4,0.0076 0.002,0.0049 0.001,-0.0027 0.001,-0.0071 0,-0.0098 z m -0.3152,-0.0127 c 0,-0.0021 -0.002,-0.0013 -0.004,0.002 -0.002,0.0032 -0.004,0.0076 -0.004,0.0098 0,0.0021 0.002,0.0013 0.004,-0.002 0.002,-0.0032 0.004,-0.0076 0.004,-0.0098 z m 0.32356,-0.01953 c 0,-0.0062 -6.6e-4,-0.0058 -0.003,0.002 -0.002,0.0054 -0.003,0.01328 -0.003,0.01758 0,0.0062 6.5e-4,0.0058 0.003,-0.002 0.002,-0.0054 0.003,-0.01328 0.003,-0.01758 z m -0.30615,-0.0293 c 0.002,-0.0068 0.002,-0.008 -0.001,-0.0039 -0.002,0.0032 -0.005,0.01025 -0.006,0.01563 -0.002,0.0068 -0.002,0.008 0.001,0.0039 0.002,-0.0032 0.005,-0.01025 0.006,-0.01563 z m 0.0232,-0.06641 c 0.002,-0.0078 10e-4,-0.0075 -0.003,0.002 -0.003,0.0064 -0.006,0.01611 -0.008,0.02148 -0.002,0.0078 -10e-4,0.0075 0.003,-0.002 0.003,-0.0064 0.006,-0.01611 0.008,-0.02148 z m 0.0195,-0.05469 c 0.002,-0.0078 0.001,-0.0075 -0.003,0.002 -0.003,0.0064 -0.006,0.01611 -0.008,0.02148 -0.002,0.0078 -0.001,0.0075 0.003,-0.002 0.003,-0.0064 0.006,-0.01611 0.008,-0.02148 z m 0.0195,-0.05469 c 0.002,-0.0078 0.001,-0.0075 -0.003,0.002 -0.003,0.0064 -0.006,0.01611 -0.008,0.02148 -0.002,0.0078 -0.001,0.0075 0.003,-0.002 0.003,-0.0064 0.006,-0.01611 0.008,-0.02148 z m 0.2864,0.01099 c -10e-4,-0.0031 -0.002,-0.0022 -0.002,0.0024 -1.7e-4,0.0041 7.5e-4,0.0064 0.002,0.0051 0.001,-0.0013 0.001,-0.0047 3.1e-4,-0.0075 z m 0.004,-0.01978 c -0.001,-0.0027 -0.002,-4.88e-4 -0.002,0.0049 0,0.0054 8.9e-4,0.0076 0.002,0.0049 0.001,-0.0027 0.001,-0.0071 0,-0.0098 z m -0.27069,-0.0459 c 0.002,-0.0078 0.001,-0.0075 -0.003,0.002 -0.003,0.0064 -0.006,0.01611 -0.008,0.02148 -0.002,0.0078 -0.001,0.0075 0.003,-0.002 0.003,-0.0064 0.006,-0.01611 0.008,-0.02148 z m 0.27858,0.01489 c -0.001,-0.0031 -0.002,-0.0022 -0.002,0.0024 -1.6e-4,0.0041 7.6e-4,0.0064 0.002,0.0051 10e-4,-0.0013 10e-4,-0.0047 3e-4,-0.0075 z m -0.25905,-0.06958 c 0.002,-0.0078 0.001,-0.0075 -0.003,0.002 -0.003,0.0064 -0.006,0.01611 -0.008,0.02148 -0.002,0.0078 -0.001,0.0075 0.003,-0.002 0.003,-0.0064 0.006,-0.01611 0.008,-0.02148 z m 0.10157,-0.339843 c 0.002,-0.0078 0.001,-0.0075 -0.003,0.002 -0.003,0.0064 -0.006,0.01611 -0.008,0.02148 -0.002,0.0078 -0.001,0.0075 0.003,-0.002 0.003,-0.0064 0.006,-0.01611 0.008,-0.02148 z m 0.0195,-0.05469 c 0.002,-0.0078 10e-4,-0.0075 -0.003,0.002 -0.003,0.0064 -0.006,0.01611 -0.008,0.02148 -0.002,0.0078 -10e-4,0.0075 0.003,-0.002 0.003,-0.0064 0.006,-0.01611 0.008,-0.02148 z"
     id="path1761"
     transform="matrix(0.75000233,0,0,0.75000233,-40.000655,0)" />
  <path
     style="fill:#ff0000;stroke-width:0.0220971"
     d="m 173.40689,52.887157 v -9.02888 l 0.0563,-0.312663 c 0.57623,-3.202056 1.5285,-6.612042 2.68677,-9.621061 l 0.0957,-0.248593 h 15.47008 15.47009 l -0.5325,0.535855 c -2.9695,2.988229 -4.5027,5.33474 -5.92328,9.06533 -0.33539,0.880762 -0.97316,2.680298 -0.956,2.697455 0.005,0.0046 0.0437,-0.08835 0.087,-0.206546 0.0432,-0.1182 0.19321,-0.528136 0.33326,-0.910968 1.11124,-3.037461 1.59258,-4.122798 2.49778,-5.632075 0.4997,-0.833163 1.51605,-2.308505 1.51649,-2.201342 0,0.01215 -0.0838,0.141421 -0.18627,0.287262 -0.91275,1.298718 -1.55798,2.370989 -2.15407,3.579728 -1.18054,2.393927 -1.92355,4.736424 -2.35239,7.416452 -0.11393,0.711977 -0.27741,2.204348 -0.27741,2.532399 0,0.05914 -0.0111,0.118593 -0.0246,0.13211 -0.0176,0.01756 -0.0424,1.581415 -0.087,5.478973 -0.0343,2.999918 -0.0631,5.456882 -0.0638,5.45992 -7.5e-4,0.003 -5.77366,0.0055 -12.82871,0.0055 h -12.82736 z"
     id="path1800"
     transform="matrix(0.75000233,0,0,0.75000233,-40.000655,0)" />
  <path
     style="fill:#ff0000;stroke-width:0.0220971"
     d="m 173.40689,52.881051 v -9.034985 l 0.0876,-0.472286 c 0.58648,-3.163556 1.41243,-6.136366 2.54327,-9.153894 l 0.20384,-0.543926 h 15.47948 15.47948 l -0.26323,0.251132 c -0.27881,0.265993 -1.20289,1.230255 -1.5699,1.638169 -2.17514,2.417562 -3.47784,4.615375 -4.74783,8.010194 -0.20178,0.539377 -0.58176,1.598416 -0.70914,1.976421 -0.10154,0.301346 -0.12021,0.405975 -0.0269,0.15097 0.78713,-2.151898 1.07769,-2.91916 1.36638,-3.608094 0.60554,-1.44507 1.12936,-2.428557 1.98301,-3.723161 0.52724,-0.799591 0.94314,-1.378445 0.97065,-1.35094 0.006,0.0064 -0.0623,0.119026 -0.15266,0.250362 -0.0903,0.131335 -0.26352,0.382975 -0.38489,0.5592 -1.30011,1.887781 -2.36001,4.010979 -3.1162,6.242427 -0.67931,2.004557 -1.1391,4.315586 -1.29033,6.485495 -0.014,0.200531 -0.0342,0.384489 -0.045,0.408796 -0.0217,0.04907 -0.0466,1.765674 -0.0974,6.728563 -0.0187,1.829086 -0.04,3.526971 -0.0472,3.773077 l -0.0131,0.447466 h -12.82493 -12.82493 z"
     id="path1839"
     transform="matrix(0.75000233,0,0,0.75000233,-40.000655,0)" />
  <path
     style="fill:#ff0000;stroke-width:0.0220971"
     d="m 173.40689,52.871965 v -9.044073 l 0.12274,-0.651024 c 0.59584,-3.160489 1.47761,-6.274545 2.62926,-9.285461 l 0.0824,-0.215447 h 15.47496 15.47496 l -0.45746,0.459475 c -2.3256,2.335856 -3.66937,4.132556 -4.8292,6.456914 -0.60897,1.220412 -0.98392,2.131034 -1.69652,4.1202 -0.15655,0.437024 -0.28434,0.80494 -0.28397,0.817592 0.001,0.05056 0.0503,-0.07137 0.261,-0.652325 1.24714,-3.438077 1.85166,-4.714586 3.16919,-6.692046 0.4645,-0.697175 0.82412,-1.190262 0.84954,-1.164841 0.006,0.0059 -0.0666,0.123286 -0.16104,0.260852 -1.05056,1.529684 -1.55232,2.365831 -2.18105,3.634516 -1.44811,2.922095 -2.3155,6.082437 -2.57958,9.39877 -0.0256,0.322065 -0.0558,0.620376 -0.067,0.662912 -0.022,0.08346 -0.0454,1.725327 -0.0983,6.883243 -0.0186,1.810856 -0.0397,3.463995 -0.0469,3.673641 l -0.0131,0.381174 h -12.82499 -12.82498 z m 26.48174,-7.197286 c 0.0103,-0.03839 0.009,-0.04513 -0.006,-0.0221 -0.0113,0.01823 -0.0271,0.058 -0.0353,0.08839 -0.0103,0.03839 -0.009,0.04513 0.006,0.0221 0.0113,-0.01823 0.0271,-0.05801 0.0353,-0.08839 z"
     id="path1878"
     transform="matrix(0.75000233,0,0,0.75000233,-40.000655,0)" />
  <path
     style="fill:#ff0000;stroke-width:0.0220971"
     d="M 173.40689,52.867644 V 43.81925 l 0.10945,-0.580412 c 0.61968,-3.286061 1.4228,-6.119815 2.6742,-9.435819 l 0.048,-0.127059 h 15.48136 15.48135 l -0.60857,0.613195 c -0.64257,0.647456 -0.86419,0.880293 -1.27922,1.34392 -2.16186,2.415044 -3.44476,4.596994 -4.72427,8.03503 -0.19826,0.532724 -0.63065,1.743752 -0.65331,1.829797 -0.038,0.144234 0.0416,-0.05217 0.21489,-0.53033 1.20549,-3.326255 1.81241,-4.642108 2.95997,-6.417455 0.54324,-0.840438 1.16703,-1.701066 1.09288,-1.507813 -0.008,0.02031 -0.16749,0.258107 -0.35487,0.528431 -1.30025,1.875816 -2.25021,3.677433 -3.0147,5.717458 -0.84284,2.249109 -1.31365,4.392524 -1.56532,7.126311 -0.0742,0.805471 -0.083,1.219419 -0.13928,6.507592 -0.0253,2.375989 -0.0519,4.471622 -0.0592,4.656961 l -0.0132,0.33698 h -12.82503 -12.82503 z"
     id="path1917"
     transform="matrix(0.75000233,0,0,0.75000233,-40.000655,0)" />
  <path
     style="fill:#ff0000;stroke-width:0.0220971"
     d="m 173.40689,52.861075 v -9.054963 l 0.0561,-0.297629 c 0.51401,-2.72848 1.08568,-4.953878 1.89857,-7.390794 0.22239,-0.666715 0.59955,-1.724296 0.78606,-2.204185 l 0.0923,-0.237544 h 15.48028 15.48028 l -0.66135,0.668437 c -2.97677,3.008643 -4.45421,5.322365 -5.93881,9.300403 -0.28502,0.763725 -0.6806,1.878879 -0.67019,1.889288 0.005,0.0047 0.091,-0.217824 0.19181,-0.494451 1.1378,-3.121969 1.68458,-4.358078 2.59277,-5.861502 0.41585,-0.688402 1.22293,-1.877447 1.41738,-2.088175 0.13696,-0.148425 0.0686,-0.02522 -0.20662,0.372278 -0.88583,1.279516 -1.46487,2.250603 -2.0575,3.450518 -1.34206,2.717313 -2.16253,5.530313 -2.50715,8.595767 -0.17282,1.537246 -0.1741,1.588769 -0.26641,10.69499 -0.007,0.64413 -0.0176,1.292956 -0.0246,1.441835 l -0.0127,0.270689 h -12.82514 -12.82513 z"
     id="path1956"
     transform="matrix(0.75000233,0,0,0.75000233,-40.000655,0)" />
  <path
     style="fill:#ff0000;stroke-width:0.0220971"
     d="m 173.40689,52.85697 v -9.059068 l 0.11063,-0.580787 c 0.6031,-3.166301 1.41672,-6.074666 2.52695,-9.032922 l 0.1866,-0.497184 15.48402,-0.0055 15.48403,-0.0055 -0.64923,0.658105 c -3.0151,3.056312 -4.47872,5.354971 -5.97446,9.383046 -0.2928,0.788525 -0.56735,1.563515 -0.55741,1.573452 0.005,0.0047 0.0709,-0.163047 0.14723,-0.372688 1.14188,-3.13688 1.72863,-4.434862 2.72033,-6.017797 0.58469,-0.933275 1.32465,-1.9791 1.32465,-1.872194 0,0.01261 -0.11613,0.190849 -0.25806,0.396075 -0.14193,0.205227 -0.38909,0.572013 -0.54923,0.815081 -2.18051,3.30957 -3.54211,7.066425 -4.02036,11.092737 -0.0707,0.594882 -0.1598,1.666886 -0.17639,2.121321 -0.017,0.465743 -0.048,2.819972 -0.089,6.761708 -0.0183,1.762243 -0.0393,3.315944 -0.0466,3.45267 l -0.0133,0.248592 h -12.82518 -12.82518 z m 26.59223,-7.491651 c 0.0103,-0.03839 0.009,-0.04513 -0.006,-0.0221 -0.0113,0.01823 -0.0271,0.05801 -0.0353,0.08839 -0.0103,0.03839 -0.009,0.04513 0.006,0.0221 0.0113,-0.01823 0.0271,-0.05801 0.0353,-0.08839 z"
     id="path1995"
     transform="matrix(0.75000233,0,0,0.75000233,-40.000655,0)" />
  <path
     style="fill:#ff0000;stroke-width:0.0883883"
     d="m 117.68908,261.27596 c 0,-37.59452 0.0296,-56.48016 0.0884,-56.48016 0.0588,0 0.0884,18.88564 0.0884,56.48016 0,37.5945 -0.0296,56.48015 -0.0884,56.48015 -0.0588,0 -0.0884,-18.88565 -0.0884,-56.48015 z"
     id="path2065"
     transform="matrix(0.75000233,0,0,0.75000233,-40.000655,0)" />
  <path
     style="fill:#ff0000;stroke-width:0.0883883"
     d="m 117.7169,261.27596 c 0,-14.41393 0.0286,-25.92873 0.0635,-25.58843 0.083,0.80839 0.083,50.36846 0,51.17685 -0.0349,0.3403 -0.0635,-11.1745 -0.0635,-25.58842 z"
     id="path2104"
     transform="matrix(0.75000233,0,0,0.75000233,-40.000655,0)" />
  <path
     style="fill:#ff0000;stroke-width:0.0883883"
     d="m 117.71,261.27596 c 0,-14.21948 0.0304,-25.73427 0.0675,-25.58843 0.0882,0.34663 0.0882,50.83022 0,51.17685 -0.0371,0.14584 -0.0675,-11.36895 -0.0675,-25.58842 z"
     id="path2143"
     transform="matrix(0.75000233,0,0,0.75000233,-40.000655,0)" />
  <path
     style="fill:#ff0000;stroke-width:0.0883883"
     d="m 117.70671,261.27596 c 0,-14.21948 0.0318,-25.75416 0.0708,-25.63263 0.0925,0.28888 0.0925,50.97637 0,51.26525 -0.0389,0.12153 -0.0708,-11.41315 -0.0708,-25.63262 z"
     id="path2182"
     transform="matrix(0.75000233,0,0,0.75000233,-40.000655,0)" />
  <path
     style="fill:#ff0000;stroke-width:0.0883883"
     d="m 117.70671,261.27596 c 0,-14.21948 0.0318,-25.75416 0.0708,-25.63263 0.0925,0.28888 0.0925,50.97637 0,51.26525 -0.0389,0.12153 -0.0708,-11.41315 -0.0708,-25.63262 z"
     id="path2221"
     transform="matrix(0.75000233,0,0,0.75000233,-40.000655,0)" />
  <path
     style="fill:#ff0000;stroke-width:0.0883883"
     d="m 192.50951,268.56799 c 0,-27.07777 0.0101,-38.14183 0.0224,-24.58681 0.0123,13.55503 0.0123,35.70957 0,49.23231 -0.0123,13.52275 -0.0224,2.43227 -0.0224,-24.6455 z"
     id="path2260"
     transform="matrix(0.75000233,0,0,0.75000233,-40.000655,0)" />
  <path
     style="fill:#ff0000;stroke-width:0.0883883"
     d="m 192.55401,268.43888 c 0,-34.63849 0.0283,-49.57777 0.0952,-50.19257 0.0524,-0.48143 0.14741,-1.08956 0.2112,-1.35139 0.14016,-0.57535 0.1711,29.00293 0.0766,73.26932 -0.0569,26.67834 -0.0643,27.59187 -0.22097,27.59187 -0.15701,0 -0.1621,-1.54818 -0.1621,-49.31723 z"
     id="path2299"
     transform="matrix(0.75000233,0,0,0.75000233,-40.000655,0)" />
  <path
     style="fill:#ff0000;stroke-width:0.0883883"
     d="m 192.59919,298.97359 c -0.0719,-19.04035 0.005,-79.69589 0.10185,-80.77574 0.0408,-0.453 0.0763,-0.56902 0.13941,-0.4562 0.11757,0.21008 0.0336,99.08022 -0.0845,99.43993 -0.0581,0.17709 -0.1102,-5.87118 -0.1568,-18.20799 z"
     id="path2338"
     transform="matrix(0.75000233,0,0,0.75000233,-40.000655,0)" />
</svg>
